<?xml version="1.0" encoding="UTF-8" standalone="no"?>
<svg
   xmlns:dc="http://purl.org/dc/elements/1.1/"
   xmlns:cc="http://creativecommons.org/ns#"
   xmlns:rdf="http://www.w3.org/1999/02/22-rdf-syntax-ns#"
   xmlns:svg="http://www.w3.org/2000/svg"
   xmlns="http://www.w3.org/2000/svg"
   viewBox="0 0 1272.8 904.15997"
   height="904.15997"
   width="1272.8"
   xml:space="preserve"
   id="svg2"
   version="1.1"><metadata
     id="metadata8"><rdf:RDF><cc:Work
         rdf:about=""><dc:format>image/svg+xml</dc:format><dc:type
           rdf:resource="http://purl.org/dc/dcmitype/StillImage" /></cc:Work></rdf:RDF></metadata><defs
     id="defs6" /><g
     transform="matrix(1.3333333,0,0,-1.3333333,0,904.16)"
     id="g10"><g
       transform="scale(0.1)"
       id="g12"><path
         id="path14"
         style="fill:#f0f3ff;fill-opacity:1;fill-rule:nonzero;stroke:none"
         d="m 1433.83,5434.07 c 30.53,19.99 61.19,39.96 91.93,59.95 641.62,417.25 1296.03,821.23 1999.24,1122.81 231.74,99.38 479.53,188.91 729.18,158.3 652.07,-79.93 984.94,-901.61 1613.43,-1095.69 331.22,-102.28 685.79,-11.66 1025.81,54.19 340.02,65.86 718.77,99.01 1007.16,-95.82 359.79,-243.09 442.44,-740.95 702.29,-1092.04 294.71,-398.19 835.53,-637.62 929.73,-1126.87 52.93,-274.95 -58.13,-555.25 -197.73,-796.71 C 9195.26,2380.71 9023.25,2154.43 8934.95,1889.06 8820.93,1546.39 8855.65,1164.5 8727.55,827.02 8616.69,534.949 8382.43,293.902 8096.74,177.891 7749.75,37 7361.5,80.2813 6988.18,94.2422 6188.26,124.129 5389.88,8.71875 4589.48,0.460938 3389.18,-11.9297 2171.35,225.609 1117.13,809.91 c -376.013,208.4 -757.607,500.67 -847.161,926.85 -49.18,234.07 -2.145,476.23 13.222,715.08 35.739,555.24 -100.347,1122.61 24.852,1664.25 148.699,643.31 617.441,984.98 1125.787,1317.98" /><path
         id="path16"
         style="fill:#ffb850;fill-opacity:1;fill-rule:nonzero;stroke:none"
         d="m 6823.9,4808.66 c -474.4,-0.01 -948.72,237.75 -1222.77,626.06 l 20.08,14.18 c 304.79,-431.87 861.45,-674.35 1385.32,-603.45 192.04,26.01 343.84,88.83 451.21,186.72 197.55,180.13 238.91,508.5 92.21,732 -47.55,72.45 -111.99,134.03 -174.3,193.6 -54.58,52.17 -111.04,106.12 -156.98,167.85 -45.74,61.45 -81.07,130.61 -115.23,197.5 -37.45,73.33 -76.18,149.15 -128.3,213.53 -111.27,137.47 -283.27,219.71 -460.13,219.99 -177.28,0.44 -349.12,-81.4 -460.83,-218.52 -20.12,-24.71 -38.7,-51.65 -56.66,-77.69 -23.98,-34.81 -48.79,-70.79 -78.09,-102.75 -45.53,-49.66 -101.13,-88.82 -154.9,-126.69 -35.52,-25.03 -72.24,-50.9 -105.42,-79.39 -167.32,-143.79 -255.77,-369.3 -230.86,-588.5 l -24.42,-2.78 c -25.83,227.19 65.85,460.9 239.27,609.93 34.06,29.26 71.28,55.48 107.27,80.84 52.7,37.12 107.18,75.51 150.93,123.21 28.16,30.7 52.46,65.97 75.98,100.08 18.23,26.45 37.08,53.8 57.84,79.27 116.12,142.55 295.14,227.58 478.97,227.58 0.34,0 0.63,0 0.97,0 184.16,-0.3 363.31,-85.95 479.2,-229.11 53.72,-66.38 93.05,-143.36 131.07,-217.81 33.71,-65.98 68.55,-134.22 113.05,-194.01 44.73,-60.07 100.4,-113.3 154.26,-164.76 63.31,-60.52 128.78,-123.09 177.87,-197.88 153.04,-233.17 109.88,-575.74 -96.21,-763.65 -111.11,-101.33 -267.39,-166.23 -464.48,-192.92 -61.67,-8.35 -123.81,-12.43 -185.92,-12.43" /><path
         id="path18"
         style="fill:#3f9896;fill-opacity:1;fill-rule:nonzero;stroke:none"
         d="m 1294.03,4091.43 c -13.04,0 -23.59,10.56 -23.59,23.6 v 262.55 c 0,13.04 10.55,23.6 23.59,23.6 13.04,0 23.59,-10.56 23.59,-23.6 v -262.55 c 0,-13.04 -10.55,-23.6 -23.59,-23.6" /><path
         id="path20"
         style="fill:#3f9896;fill-opacity:1;fill-rule:nonzero;stroke:none"
         d="m 1425.3,4222.71 h -262.55 c -13.05,0 -23.6,10.56 -23.6,23.59 0,13.03 10.55,23.59 23.6,23.59 h 262.55 c 13.03,0 23.59,-10.56 23.59,-23.59 0,-13.03 -10.56,-23.59 -23.59,-23.59" /><path
         id="path22"
         style="fill:#3f9896;fill-opacity:1;fill-rule:nonzero;stroke:none"
         d="m 7094.1,798.238 c -13.04,0 -23.59,10.571 -23.59,23.602 v 262.55 c 0,13.03 10.55,23.59 23.59,23.59 13.04,0 23.6,-10.56 23.6,-23.59 V 821.84 c 0,-13.031 -10.56,-23.602 -23.6,-23.602" /><path
         id="path24"
         style="fill:#3f9896;fill-opacity:1;fill-rule:nonzero;stroke:none"
         d="m 7225.39,929.52 h -262.55 c -13.04,0 -23.59,10.57 -23.59,23.601 0,13.02 10.55,23.59 23.59,23.59 h 262.55 c 13.04,0 23.6,-10.57 23.6,-23.59 0,-13.031 -10.56,-23.601 -23.6,-23.601" /><path
         id="path26"
         style="fill:#3f9896;fill-opacity:1;fill-rule:nonzero;stroke:none"
         d="m 8084.85,4371.2 c -13.04,0 -23.6,10.56 -23.6,23.59 v 131.28 c 0,13.02 10.56,23.59 23.6,23.59 13.04,0 23.59,-10.57 23.59,-23.59 v -131.28 c 0,-13.03 -10.55,-23.59 -23.59,-23.59" /><path
         id="path28"
         style="fill:#3f9896;fill-opacity:1;fill-rule:nonzero;stroke:none"
         d="M 8150.47,4436.84 H 8019.2 c -13.04,0 -23.59,10.56 -23.59,23.6 0,13.02 10.55,23.59 23.59,23.59 h 131.27 c 13.04,0 23.59,-10.57 23.59,-23.59 0,-13.04 -10.55,-23.6 -23.59,-23.6" /><path
         id="path30"
         style="fill:#ffb850;fill-opacity:1;fill-rule:nonzero;stroke:none"
         d="m 4909.33,615.211 c -1.07,12.008 -4.51,23.98 -11.21,34.008 -6.99,10.461 -17.32,18.472 -28.73,23.773 -30.24,14.059 -68.46,7.52 -93.21,-14.531 6.24,32.551 -7.75,68.719 -35.33,87.461 -10.41,7.07 -22.58,11.828 -35.14,12.457 -12.06,0.609 -24.1,-2.578 -34.96,-7.82 -31.1,-15.028 -52.76,-48.559 -52.22,-83.098 0.53,-34.539 24.04,-67.949 56.83,-78.801 -15.16,-3.82 -31.66,-7.91 -45.16,-15.801 -13.51,-7.898 -25.1,-20.437 -28.17,-35.777 -3.06,-15.332 4.44,-33.16 19.08,-38.684 6.43,-2.429 13.52,-2.386 20.36,-1.707 19.38,1.918 38.15,8.989 54.26,19.93 -1.15,-19.43 2.43,-39.172 10.72,-56.793 2.92,-6.226 6.52,-12.328 11.91,-16.609 12.24,-9.727 31.4,-7.02 42.99,3.48 11.59,10.5 16.41,26.891 16.26,42.531 -0.15,15.629 -5.12,31.891 -9.6,46.872 26.13,-22.571 66.88,-25.622 96.79,-8.352 29.92,17.262 47.59,53.039 44.53,87.461" /><path
         id="path32"
         style="fill:#1b0102;fill-opacity:1;fill-rule:nonzero;stroke:none"
         d="m 4783.06,680.309 c -1.32,0.75 -2.04,2.3 -1.66,3.851 7.49,31.11 14.42,62.82 20.6,94.262 0.38,1.879 2.21,3.109 4.1,2.738 1.89,-0.379 3.11,-2.199 2.75,-4.09 -6.21,-31.531 -13.16,-63.34 -20.68,-94.55 -0.45,-1.86 -2.34,-3.02 -4.2,-2.571 -0.33,0.082 -0.63,0.211 -0.91,0.36" /><path
         id="path34"
         style="fill:#1b0102;fill-opacity:1;fill-rule:nonzero;stroke:none"
         d="m 4799.32,683.25 c -0.16,0.09 -0.31,0.199 -0.46,0.32 -1.5,1.2 -1.75,3.391 -0.55,4.899 13.11,16.383 28.03,31.39 44.35,44.59 1.49,1.211 3.71,0.98 4.89,-0.52 1.22,-1.488 0.99,-3.68 -0.52,-4.887 -15.91,-12.89 -30.48,-27.531 -43.28,-43.543 -1.08,-1.347 -2.97,-1.687 -4.43,-0.859" /><path
         id="path36"
         style="fill:#ffffff;fill-opacity:1;fill-rule:nonzero;stroke:none"
         d="M 6291.54,1292.65 5447.79,5345.75 1632.68,4476.17 2378.45,417.102 6291.54,1292.65" /><path
         id="path38"
         style="fill:#ffb850;fill-opacity:1;fill-rule:nonzero;stroke:none"
         d="m 8585.03,4321.62 c -68.69,16.98 -133.62,54.75 -175.2,112 -14.28,19.66 -25.93,42.23 -27.4,66.48 -1.46,24.26 9.11,50.3 30.37,62.07 15.79,8.75 35.28,8.65 52.65,3.71 17.36,-4.94 33.1,-14.29 48.61,-23.54 -22.09,20.85 -36.97,53.38 -36.06,83.75 0.91,30.37 15.34,60.08 38.64,79.58 13.55,11.34 30.68,19.43 48.32,18.54 10.69,-0.54 20.97,-4.31 30.53,-9.11 36.64,-18.37 64.78,-52.97 75.27,-92.58 3.23,32.24 17.37,68.65 48.52,77.61 30.73,8.83 63.25,-15.09 75.15,-44.77 11.89,-29.69 8.39,-63.04 4.05,-94.72 -7.58,-55.28 -17.72,-111.85 -47.03,-159.32 -29.33,-47.47 -112.26,-93.09 -166.42,-79.7" /><path
         id="path40"
         style="fill:#1b0102;fill-opacity:1;fill-rule:nonzero;stroke:none"
         d="m 8666.08,4356.06 c -1.39,0 -2.8,0.41 -4.01,1.27 -90.06,63.18 -159.02,155.4 -194.17,259.65 -1.23,3.65 0.74,7.6 4.38,8.82 3.66,1.25 7.6,-0.73 8.82,-4.37 34.21,-101.46 101.32,-191.21 188.97,-252.71 3.16,-2.21 3.92,-6.55 1.7,-9.7 -1.36,-1.93 -3.51,-2.96 -5.69,-2.96" /><path
         id="path42"
         style="fill:#1b0102;fill-opacity:1;fill-rule:nonzero;stroke:none"
         d="m 8680.77,4588.81 c -3.04,0 -5.83,2 -6.71,5.07 -10.91,38.6 -33.29,74.7 -62.94,101.65 -2.86,2.59 -3.06,7 -0.48,9.84 2.59,2.85 7,3.04 9.83,0.47 31.58,-28.68 55.36,-67.1 67.01,-108.17 1.05,-3.7 -1.1,-7.55 -4.8,-8.59 -0.65,-0.19 -1.28,-0.27 -1.91,-0.27" /><path
         id="path44"
         style="fill:#1b0102;fill-opacity:1;fill-rule:nonzero;stroke:none"
         d="m 8692.25,4408.94 c -0.36,0 -0.74,0.02 -1.11,0.08 -3.79,0.61 -6.38,4.18 -5.79,7.99 7,43.39 7.07,87.43 0.27,130.89 -0.61,3.8 1.99,7.36 5.8,7.96 3.7,0.55 7.34,-1.99 7.96,-5.8 7.03,-44.91 6.95,-90.42 -0.26,-135.27 -0.55,-3.42 -3.51,-5.85 -6.87,-5.85" /><path
         id="path46"
         style="fill:#1b0102;fill-opacity:1;fill-rule:nonzero;stroke:none"
         d="m 8602.22,4334 c -0.49,0 -0.97,0.05 -1.46,0.15 -34.74,7.38 -68.11,22.54 -96.5,43.86 -3.07,2.31 -3.69,6.68 -1.39,9.75 2.32,3.07 6.69,3.69 9.76,1.39 26.78,-20.11 58.26,-34.42 91.02,-41.38 3.76,-0.8 6.18,-4.49 5.38,-8.26 -0.7,-3.26 -3.6,-5.51 -6.81,-5.51" /><path
         id="path48"
         style="fill:#1b0102;fill-opacity:1;fill-rule:nonzero;stroke:none"
         d="m 8760.82,4507.21 c -0.07,0 -0.14,0 -0.23,0.01 -3.85,0.12 -6.86,3.35 -6.73,7.19 l 1.35,40.71 c 0.11,3.76 3.22,6.73 6.96,6.73 0.07,0 0.15,0 0.23,-0.01 3.85,-0.12 6.85,-3.34 6.73,-7.19 l -1.34,-40.7 c -0.13,-3.77 -3.23,-6.74 -6.97,-6.74" /><path
         id="path50"
         style="fill:#ffb850;fill-opacity:1;fill-rule:nonzero;stroke:none"
         d="m 1050.86,3714.32 c -5.79,114.34 4.27,93.22 -80.883,169.73 114.333,5.8 93.223,-4.26 169.723,80.89 5.8,-114.33 -4.26,-93.22 80.89,-169.73 -114.33,-5.79 -93.21,4.27 -169.73,-80.89" /><path
         id="path52"
         style="fill:#ffb850;fill-opacity:1;fill-rule:nonzero;stroke:none"
         d="m 1170.65,3321.46 c -8.15,160.82 6,131.12 -113.78,238.74 160.82,8.15 131.12,-6.01 238.74,113.77 8.15,-160.82 -6.01,-131.12 113.77,-238.74 -160.82,-8.15 -131.12,6.01 -238.73,-113.77" /><path
         id="path54"
         style="fill:#ffb850;fill-opacity:1;fill-rule:nonzero;stroke:none"
         d="m 864.996,3452.22 c -4.07,80.4 3.004,65.55 -56.883,119.36 80.41,4.08 65.555,-3 119.371,56.89 4.071,-80.41 -3.004,-65.56 56.879,-119.37 -80.406,-4.07 -65.558,3.01 -119.367,-56.88" /><path
         id="path56"
         style="fill:#ead5cc;fill-opacity:1;fill-rule:nonzero;stroke:none"
         d="M 2518.98,467.879 8053.79,1673.76 7156,5794.53 c -31.39,144.06 -174.11,235.74 -318.18,204.35 L 1825.54,4906.85 c -144.06,-31.39 -235.75,-174.14 -204.37,-318.2 z M 8104.57,1641.15 2486.36,417.102 1579.48,4579.57 c -36.39,167.04 69.91,332.57 236.98,368.97 l 5012.27,1092.04 c 167.03,36.38 332.56,-69.92 368.96,-236.97 l 906.88,-4162.46" /><path
         id="path58"
         style="fill:#f45a56;fill-opacity:1;fill-rule:nonzero;stroke:none"
         d="m 7241.93,5602.96 -5615.1,-1223.37 -57.36,263.27 c -36.49,167.48 69.7,332.82 237.17,369.31 L 6815.26,6103.4 c 167.47,36.49 332.82,-69.69 369.3,-237.17 l 57.37,-263.27" /><path
         id="path60"
         style="fill:#ffffff;fill-opacity:1;fill-rule:nonzero;stroke:none"
         d="m 6472.37,5731.99 c 10.85,-49.82 -20.02,-98.85 -68.97,-109.52 -48.94,-10.66 -97.42,21.09 -108.27,70.91 -10.86,49.82 20.02,98.86 68.96,109.52 48.94,10.66 97.42,-21.08 108.28,-70.91" /><path
         id="path62"
         style="fill:#ffffff;fill-opacity:1;fill-rule:nonzero;stroke:none"
         d="m 6160.56,5664.06 c 10.86,-49.82 -20.02,-98.86 -68.97,-109.52 -48.94,-10.66 -97.41,21.08 -108.27,70.91 -10.86,49.82 20.02,98.85 68.97,109.52 48.94,10.66 97.41,-21.09 108.27,-70.91" /><path
         id="path64"
         style="fill:#ffffff;fill-opacity:1;fill-rule:nonzero;stroke:none"
         d="m 6784.16,5799.93 c 10.86,-49.83 -20.02,-98.86 -68.95,-109.52 -48.95,-10.67 -97.42,21.08 -108.28,70.9 -10.85,49.82 20.03,98.86 68.96,109.52 48.95,10.67 97.42,-21.08 108.27,-70.9" /><path
         id="path66"
         style="fill:#ead5cc;fill-opacity:1;fill-rule:nonzero;stroke:none"
         d="m 8079.19,1657.45 -1866,-406.55 -858.61,3940.85 1866.01,406.56 858.6,-3940.86" /><path
         id="path68"
         style="fill:#ead5cc;fill-opacity:1;fill-rule:nonzero;stroke:none"
         d="m 2765.52,2871.55 -439.39,-95.73 c -11.53,-2.51 -22.88,4.79 -25.4,16.31 -2.51,11.52 4.79,22.88 16.31,25.39 l 439.4,95.73 c 11.52,2.51 22.88,-4.78 25.39,-16.31 2.51,-11.52 -4.79,-22.88 -16.31,-25.39" /><path
         id="path70"
         style="fill:#ead5cc;fill-opacity:1;fill-rule:nonzero;stroke:none"
         d="m 3463.91,2647.72 -439.4,-95.73 c -11.52,-2.51 -22.87,4.78 -25.39,16.31 -2.51,11.52 4.79,22.87 16.31,25.39 l 439.4,95.73 c 11.52,2.51 22.88,-4.79 25.39,-16.31 2.51,-11.52 -4.79,-22.88 -16.31,-25.39" /><path
         id="path72"
         style="fill:#ead5cc;fill-opacity:1;fill-rule:nonzero;stroke:none"
         d="m 3195.31,2965.19 -266.59,-58.08 c -11.52,-2.51 -22.88,4.79 -25.39,16.31 -2.51,11.52 4.79,22.88 16.31,25.38 l 266.58,58.09 c 11.53,2.51 22.88,-4.78 25.39,-16.31 2.51,-11.52 -4.78,-22.88 -16.3,-25.39" /><path
         id="path74"
         style="fill:#ead5cc;fill-opacity:1;fill-rule:nonzero;stroke:none"
         d="m 3793.7,3095.57 -477.46,-104.03 c -11.52,-2.51 -22.88,4.78 -25.39,16.31 -2.51,11.52 4.78,22.87 16.3,25.38 l 477.47,104.03 c 11.53,2.51 22.88,-4.78 25.39,-16.3 2.51,-11.53 -4.78,-22.88 -16.31,-25.39" /><path
         id="path76"
         style="fill:#ead5cc;fill-opacity:1;fill-rule:nonzero;stroke:none"
         d="m 3871.91,2736.61 -273.47,-59.58 c -11.52,-2.51 -22.87,4.78 -25.39,16.31 -2.51,11.52 4.78,22.88 16.31,25.39 l 273.46,59.58 c 11.53,2.51 22.89,-4.78 25.4,-16.31 2.51,-11.52 -4.79,-22.88 -16.31,-25.39" /><path
         id="path78"
         style="fill:#ead5cc;fill-opacity:1;fill-rule:nonzero;stroke:none"
         d="m 2881.8,2520.89 -477.46,-104.02 c -11.53,-2.51 -22.88,4.78 -25.39,16.3 -2.51,11.53 4.77,22.89 16.3,25.4 l 477.47,104.02 c 11.52,2.51 22.88,-4.78 25.39,-16.3 2.51,-11.53 -4.79,-22.89 -16.31,-25.4" /><path
         id="path80"
         style="fill:#ead5cc;fill-opacity:1;fill-rule:nonzero;stroke:none"
         d="m 3070.64,2750.03 -705.4,-153.69 c -11.53,-2.52 -22.88,4.78 -25.39,16.3 -2.51,11.53 4.78,22.88 16.3,25.39 l 705.41,153.69 c 11.52,2.51 22.88,-4.78 25.39,-16.3 2.51,-11.53 -4.79,-22.88 -16.31,-25.39" /><path
         id="path82"
         style="fill:#ead5cc;fill-opacity:1;fill-rule:nonzero;stroke:none"
         d="m 3495.54,2842.6 -299.2,-65.19 c -11.52,-2.51 -22.88,4.78 -25.39,16.31 -2.51,11.52 4.78,22.88 16.31,25.39 l 299.2,65.18 c 11.52,2.51 22.87,-4.78 25.39,-16.3 2.51,-11.52 -4.79,-22.88 -16.31,-25.39" /><path
         id="path84"
         style="fill:#ead5cc;fill-opacity:1;fill-rule:nonzero;stroke:none"
         d="m 3832.81,2916.08 -217.6,-47.41 c -11.53,-2.51 -22.88,4.78 -25.39,16.31 -2.51,11.52 4.78,22.88 16.31,25.39 l 217.59,47.4 c 11.53,2.51 22.88,-4.78 25.39,-16.3 2.51,-11.52 -4.78,-22.88 -16.3,-25.39" /><path
         id="path86"
         style="fill:#ead5cc;fill-opacity:1;fill-rule:nonzero;stroke:none"
         d="m 2886.39,2316.81 -439.4,-95.73 c -11.52,-2.51 -22.88,4.78 -25.39,16.3 -2.51,11.53 4.79,22.88 16.31,25.39 l 439.39,95.74 c 11.52,2.51 22.88,-4.79 25.39,-16.31 2.51,-11.53 -4.78,-22.88 -16.3,-25.39" /><path
         id="path88"
         style="fill:#ead5cc;fill-opacity:1;fill-rule:nonzero;stroke:none"
         d="m 3584.77,2092.99 -439.4,-95.72 c -11.52,-2.52 -22.87,4.77 -25.39,16.3 -2.51,11.52 4.79,22.88 16.31,25.39 l 439.4,95.73 c 11.52,2.51 22.88,-4.79 25.39,-16.31 2.51,-11.52 -4.79,-22.87 -16.31,-25.39" /><path
         id="path90"
         style="fill:#ead5cc;fill-opacity:1;fill-rule:nonzero;stroke:none"
         d="m 3316.16,2410.45 -266.58,-58.09 c -11.52,-2.51 -22.88,4.79 -25.39,16.31 -2.51,11.53 4.79,22.88 16.31,25.39 l 266.58,58.08 c 11.53,2.51 22.88,-4.78 25.39,-16.3 2.51,-11.53 -4.78,-22.88 -16.31,-25.39" /><path
         id="path92"
         style="fill:#ead5cc;fill-opacity:1;fill-rule:nonzero;stroke:none"
         d="M 3914.56,2540.82 3437.1,2436.79 c -11.52,-2.51 -22.88,4.78 -25.39,16.31 -2.51,11.52 4.79,22.88 16.31,25.39 l 477.46,104.03 c 11.52,2.51 22.88,-4.79 25.39,-16.31 2.51,-11.53 -4.78,-22.88 -16.31,-25.39" /><path
         id="path94"
         style="fill:#ead5cc;fill-opacity:1;fill-rule:nonzero;stroke:none"
         d="m 3992.77,2181.89 -273.47,-59.58 c -11.52,-2.51 -22.87,4.78 -25.39,16.3 -2.51,11.53 4.78,22.88 16.31,25.39 l 273.46,59.59 c 11.53,2.5 22.88,-4.79 25.39,-16.31 2.51,-11.53 -4.78,-22.88 -16.3,-25.39" /><path
         id="path96"
         style="fill:#ead5cc;fill-opacity:1;fill-rule:nonzero;stroke:none"
         d="M 3002.66,1966.17 2525.2,1862.14 c -11.53,-2.51 -22.88,4.78 -25.39,16.31 -2.51,11.52 4.77,22.88 16.3,25.39 l 477.47,104.02 c 11.52,2.51 22.88,-4.78 25.39,-16.31 2.51,-11.52 -4.79,-22.87 -16.31,-25.38" /><path
         id="path98"
         style="fill:#ead5cc;fill-opacity:1;fill-rule:nonzero;stroke:none"
         d="m 3191.5,2195.29 -705.4,-153.68 c -11.53,-2.51 -22.88,4.78 -25.39,16.3 -2.51,11.52 4.78,22.88 16.3,25.39 l 705.4,153.69 c 11.53,2.51 22.89,-4.78 25.4,-16.31 2.5,-11.52 -4.79,-22.88 -16.31,-25.39" /><path
         id="path100"
         style="fill:#ead5cc;fill-opacity:1;fill-rule:nonzero;stroke:none"
         d="m 3616.4,2287.87 -299.2,-65.18 c -11.52,-2.51 -22.88,4.77 -25.39,16.3 -2.51,11.52 4.78,22.88 16.31,25.39 l 299.2,65.18 c 11.52,2.51 22.87,-4.77 25.39,-16.3 2.51,-11.52 -4.79,-22.88 -16.31,-25.39" /><path
         id="path102"
         style="fill:#ead5cc;fill-opacity:1;fill-rule:nonzero;stroke:none"
         d="m 3953.66,2361.35 -217.59,-47.4 c -11.53,-2.51 -22.88,4.77 -25.39,16.3 -2.51,11.52 4.78,22.88 16.3,25.39 l 217.6,47.41 c 11.53,2.51 22.88,-4.79 25.39,-16.31 2.51,-11.52 -4.78,-22.88 -16.31,-25.39" /><path
         id="path104"
         style="fill:#ead5cc;fill-opacity:1;fill-rule:nonzero;stroke:none"
         d="m 3010.35,1747.8 -439.39,-95.73 c -11.52,-2.51 -22.88,4.79 -25.39,16.31 -2.51,11.52 4.78,22.88 16.31,25.39 l 439.39,95.73 c 11.53,2.51 22.88,-4.78 25.39,-16.31 2.51,-11.52 -4.78,-22.88 -16.31,-25.39" /><path
         id="path106"
         style="fill:#ead5cc;fill-opacity:1;fill-rule:nonzero;stroke:none"
         d="m 3708.74,1524 -439.39,-95.74 c -11.53,-2.51 -22.88,4.79 -25.39,16.31 -2.51,11.53 4.78,22.88 16.31,25.39 l 439.38,95.73 c 11.52,2.51 22.88,-4.78 25.39,-16.3 2.51,-11.53 -4.77,-22.88 -16.3,-25.39" /><path
         id="path108"
         style="fill:#ead5cc;fill-opacity:1;fill-rule:nonzero;stroke:none"
         d="m 3440.14,1841.45 -266.58,-58.09 c -11.53,-2.51 -22.88,4.79 -25.39,16.31 -2.51,11.52 4.77,22.88 16.3,25.39 l 266.59,58.08 c 11.52,2.52 22.87,-4.78 25.39,-16.3 2.51,-11.53 -4.79,-22.88 -16.31,-25.39" /><path
         id="path110"
         style="fill:#ead5cc;fill-opacity:1;fill-rule:nonzero;stroke:none"
         d="m 4038.54,1971.82 -477.47,-104.03 c -11.53,-2.51 -22.87,4.79 -25.38,16.31 -2.52,11.53 4.77,22.87 16.29,25.38 l 477.48,104.04 c 11.52,2.51 22.87,-4.79 25.39,-16.31 2.51,-11.53 -4.79,-22.88 -16.31,-25.39" /><path
         id="path112"
         style="fill:#ead5cc;fill-opacity:1;fill-rule:nonzero;stroke:none"
         d="m 4116.74,1612.88 -273.47,-59.58 c -11.52,-2.51 -22.88,4.79 -25.39,16.31 -2.51,11.52 4.79,22.88 16.31,25.39 l 273.46,59.58 c 11.52,2.51 22.88,-4.78 25.39,-16.31 2.51,-11.52 -4.78,-22.88 -16.3,-25.39" /><path
         id="path114"
         style="fill:#ead5cc;fill-opacity:1;fill-rule:nonzero;stroke:none"
         d="m 3126.62,1397.17 -477.46,-104.02 c -11.52,-2.51 -22.88,4.77 -25.39,16.29 -2.51,11.53 4.79,22.89 16.31,25.4 l 477.46,104.03 c 11.52,2.51 22.88,-4.79 25.39,-16.31 2.51,-11.52 -4.78,-22.88 -16.31,-25.39" /><path
         id="path116"
         style="fill:#ead5cc;fill-opacity:1;fill-rule:nonzero;stroke:none"
         d="m 3315.47,1626.3 -705.41,-153.69 c -11.52,-2.51 -22.88,4.78 -25.39,16.31 -2.51,11.52 4.79,22.88 16.31,25.39 l 705.41,153.68 c 11.52,2.51 22.87,-4.78 25.38,-16.3 2.52,-11.52 -4.78,-22.88 -16.3,-25.39" /><path
         id="path118"
         style="fill:#ead5cc;fill-opacity:1;fill-rule:nonzero;stroke:none"
         d="m 3740.36,1718.87 -299.2,-65.19 c -11.52,-2.51 -22.88,4.79 -25.39,16.31 -2.51,11.52 4.79,22.88 16.31,25.39 l 299.2,65.19 c 11.53,2.51 22.88,-4.79 25.39,-16.31 2.51,-11.52 -4.78,-22.88 -16.31,-25.39" /><path
         id="path120"
         style="fill:#ead5cc;fill-opacity:1;fill-rule:nonzero;stroke:none"
         d="m 4077.64,1792.35 -217.6,-47.41 c -11.52,-2.51 -22.88,4.79 -25.39,16.31 -2.51,11.52 4.78,22.88 16.3,25.39 l 217.61,47.4 c 11.52,2.51 22.87,-4.77 25.38,-16.29 2.52,-11.53 -4.78,-22.89 -16.3,-25.4" /><path
         id="path122"
         style="fill:#ead5cc;fill-opacity:1;fill-rule:nonzero;stroke:none"
         d="M 5088.97,3709.91 2236.44,3088.43 c -20.42,-4.45 -40.58,8.5 -45.03,28.92 l -24.57,112.78 c -4.45,20.42 8.49,40.58 28.91,45.03 l 2852.53,621.49 c 20.43,4.45 40.59,-8.5 45.04,-28.92 l 24.57,-112.78 c 4.46,-20.42 -8.49,-40.58 -28.92,-45.04" /><path
         id="path124"
         style="fill:#ffb850;fill-opacity:1;fill-rule:nonzero;stroke:none"
         d="m 5393.19,1911.03 -946.96,-206.32 c -39.67,-8.64 -78.83,16.5 -87.47,56.17 l -297.09,1363.59 c -8.64,39.67 16.52,78.83 56.17,87.46 l 946.97,206.32 c 39.66,8.65 78.82,-16.51 87.46,-56.17 l 297.09,-1363.59 c 8.64,-39.66 -16.51,-78.82 -56.17,-87.46" /><path
         id="path126"
         style="fill:#8ddbbf;fill-opacity:1;fill-rule:nonzero;stroke:none"
         d="M 7727.05,4312.56 C 7843.3,3778.99 7504.99,3252.2 6971.42,3135.95 6437.84,3019.7 5911.06,3358 5794.81,3891.58 c -116.25,533.57 222.06,1060.36 755.63,1176.61 533.58,116.25 1060.36,-222.06 1176.61,-755.63" /><path
         id="path128"
         style="fill:#1c0102;fill-opacity:1;fill-rule:nonzero;stroke:none"
         d="m 7169.46,3035.02 c -510.75,-111.28 -1016.79,213.7 -1128.07,724.45 -111.28,510.75 213.7,1016.81 724.45,1128.08 220.81,48.11 451.89,15.71 650.64,-91.24 7.96,-4.28 10.94,-14.2 6.66,-22.15 -4.25,-7.97 -14.26,-10.93 -22.15,-6.65 -191.9,103.26 -414.98,134.54 -628.18,88.09 -493.12,-107.44 -806.91,-596.04 -699.47,-1089.17 107.44,-493.12 596.04,-806.9 1089.15,-699.46 493.12,107.44 806.91,596.03 699.47,1089.15 -25.88,118.79 -73.92,229.15 -142.79,328.04 -5.14,7.4 -3.35,17.6 4.09,22.77 7.39,5.09 17.58,3.34 22.76,-4.08 71.35,-102.43 121.09,-216.75 147.89,-339.77 111.28,-510.74 -213.7,-1016.79 -724.45,-1128.06" /><path
         id="path130"
         style="fill:#1c0102;fill-opacity:1;fill-rule:nonzero;stroke:none"
         d="m 7011.94,3576.48 c -18.94,-4.13 -38.97,-0.66 -55.45,9.67 l -729.92,457.87 c -7.64,4.81 -9.96,14.9 -5.16,22.54 4.82,7.62 14.88,9.96 22.53,5.17 l 729.91,-457.87 c 9.96,-6.25 21.6,-7.78 33.05,-4.96 11.34,3.06 20.63,10.46 26.11,20.87 l 721,1367.49 c 4.22,8.04 14.13,11.07 22.11,6.84 7.97,-4.21 11.04,-14.1 6.83,-22.08 L 7061.93,3614.51 c -9.63,-18.27 -26.59,-31.82 -46.54,-37.18 -1.15,-0.32 -2.3,-0.6 -3.45,-0.85" /><path
         id="path132"
         style="fill:#ffb850;fill-opacity:1;fill-rule:nonzero;stroke:none"
         d="m 5028.75,4164.11 -2905.5,-633.02 -145.71,668.8 2905.49,633.03 145.72,-668.81" /><path
         id="path134"
         style="fill:#1b0102;fill-opacity:1;fill-rule:nonzero;stroke:none"
         d="m 2293.32,4039.04 c -2.83,0 -5.37,1.96 -5.99,4.83 -0.73,3.32 1.37,6.59 4.68,7.32 l 2315.53,504.48 c 3.26,0.7 6.59,-1.37 7.32,-4.69 0.72,-3.32 -1.39,-6.59 -4.7,-7.32 L 2294.63,4039.18 c -0.44,-0.1 -0.87,-0.14 -1.31,-0.14" /><path
         id="path136"
         style="fill:#1b0102;fill-opacity:1;fill-rule:nonzero;stroke:none"
         d="m 2346.07,3797 c -2.84,0 -5.38,1.96 -6.01,4.83 -0.72,3.32 1.38,6.59 4.7,7.32 l 2315.52,504.48 c 3.26,0.71 6.59,-1.36 7.31,-4.69 0.72,-3.32 -1.38,-6.6 -4.7,-7.32 L 2347.38,3797.13 c -0.45,-0.09 -0.88,-0.13 -1.31,-0.13" /><path
         id="path138"
         style="fill:#1b0102;fill-opacity:1;fill-rule:nonzero;stroke:none"
         d="m 2318.31,3924.39 c -2.83,0 -5.38,1.96 -6,4.83 -0.73,3.32 1.37,6.59 4.69,7.32 l 1036.61,225.84 c 3.37,0.71 6.6,-1.38 7.3,-4.69 0.72,-3.32 -1.38,-6.6 -4.69,-7.32 l -1036.6,-225.85 c -0.45,-0.1 -0.88,-0.13 -1.31,-0.13" /><path
         id="path140"
         style="fill:#1b0102;fill-opacity:1;fill-rule:nonzero;stroke:none"
         d="m 3597.23,4203.03 c -2.83,0 -5.38,1.96 -6.01,4.84 -0.71,3.32 1.39,6.59 4.7,7.31 l 1036.6,225.84 c 3.25,0.71 6.59,-1.37 7.32,-4.7 0.72,-3.32 -1.38,-6.59 -4.7,-7.32 l -1036.6,-225.83 c -0.44,-0.1 -0.88,-0.14 -1.31,-0.14" /><path
         id="path142"
         style="fill:#ff926c;fill-opacity:1;fill-rule:nonzero;stroke:none"
         d="m 8538.59,1068.86 c -33.79,124.88 -38.2,257.61 -12.78,384.46 24.33,121.39 75.09,235.76 108.28,355.03 68.46,245.98 60.67,506.61 35.01,760.65 -7.25,71.8 -17.97,148.34 -65.82,202.36 -47.84,54.04 -157.82,66.31 -199.85,7.65 -14.5,57.42 -61.13,105.58 -118.05,121.93 -56.92,16.35 -120.8,-10.68 -163.56,-51.65 -7.08,73.5 -54.54,141.82 -120.94,174.12 -66.4,32.3 -146.6,12.81 -208.8,-26.98 -15.63,103.34 -31.27,206.68 -46.9,310.01 -17.91,118.4 -35.93,237.26 -70.09,352.03 -23.09,77.59 -63.5,162.51 -141.51,184.11 -77.37,21.42 -159.75,-33.82 -194.89,-106 -35.13,-72.17 -33.85,-156.21 -28.08,-236.28 13.01,-180.67 45.12,-359.96 95.64,-533.91 53.06,-182.66 127.22,-365.79 114.3,-555.57 -2.46,-36.14 -8.67,-73.53 -29.54,-103.15 -53.72,-76.29 -176.5,-61.99 -249.69,-4.13 -73.2,57.86 -116.68,144.84 -179.5,213.82 -62.83,68.98 -164.75,120.88 -248.03,78.82 -71.46,-36.09 -97.98,-129.51 -81.47,-207.85 16.51,-78.34 66.1,-145.03 114.83,-208.55 171.66,-223.79 349.05,-443.19 531.93,-657.9 60.4,-70.9 122,-142.18 164.35,-225.13 42.36,-82.95 64.19,-180.22 40.08,-270.19 l 955.08,42.3" /><path
         id="path144"
         style="fill:#1c0102;fill-opacity:1;fill-rule:nonzero;stroke:none"
         d="m 6856.79,2161.02 c -1.09,0 -2.21,0.29 -3.21,0.9 -2.92,1.78 -3.85,5.59 -2.06,8.52 135.25,221.71 -60.04,406.84 -62.03,408.7 -2.51,2.32 -2.65,6.23 -0.34,8.74 2.33,2.5 6.24,2.67 8.75,0.32 2.07,-1.9 204.65,-193.96 64.18,-424.21 -1.16,-1.92 -3.2,-2.97 -5.29,-2.97" /><path
         id="path146"
         style="fill:#1c0102;fill-opacity:1;fill-rule:nonzero;stroke:none"
         d="m 7466.66,3556.95 c -43.64,0 -76.51,11.76 -77.14,11.99 -3.2,1.19 -4.84,4.74 -3.66,7.95 1.18,3.19 4.77,4.83 7.94,3.67 1.11,-0.4 111.49,-39.72 192.51,30.81 2.56,2.25 6.49,1.98 8.73,-0.6 2.25,-2.58 1.97,-6.49 -0.6,-8.74 -40.94,-35.64 -88.69,-45.08 -127.78,-45.08" /><path
         id="path148"
         style="fill:#1c0102;fill-opacity:1;fill-rule:nonzero;stroke:none"
         d="m 7798.71,2789.27 c -3.33,0 -6.07,2.64 -6.18,5.99 l -6.63,200.96 c -0.12,3.42 2.56,6.28 5.98,6.4 3.29,0.01 6.28,-2.57 6.39,-5.99 l 6.63,-200.96 c 0.12,-3.42 -2.56,-6.27 -5.97,-6.4 -0.08,0 -0.15,0 -0.22,0" /><path
         id="path150"
         style="fill:#1c0102;fill-opacity:1;fill-rule:nonzero;stroke:none"
         d="m 8121.82,2731.13 c -3.42,0 -6.19,2.77 -6.19,6.2 v 111.96 c 0,3.43 2.77,6.19 6.19,6.19 3.43,0 6.19,-2.76 6.19,-6.19 v -111.96 c 0,-3.43 -2.76,-6.2 -6.19,-6.2" /><path
         id="path152"
         style="fill:#1c0102;fill-opacity:1;fill-rule:nonzero;stroke:none"
         d="m 8403.43,2663.29 c -3.43,0 -6.19,2.77 -6.19,6.19 v 109.53 c 0,3.42 2.76,6.19 6.19,6.19 3.42,0 6.19,-2.77 6.19,-6.19 v -109.53 c 0,-3.42 -2.77,-6.19 -6.19,-6.19" /><path
         id="path154"
         style="fill:#1c0102;fill-opacity:1;fill-rule:nonzero;stroke:none"
         d="m 7711.1,2644.71 c -29.32,0 -53.18,-23.84 -53.18,-53.17 0,-29.31 23.86,-53.16 53.18,-53.16 29.3,0 53.16,23.85 53.16,53.16 0,29.33 -23.86,53.17 -53.16,53.17 z m 0,-118.71 c -36.16,0 -65.56,29.4 -65.56,65.54 0,36.15 29.4,65.56 65.56,65.56 36.14,0 65.54,-29.41 65.54,-65.56 0,-36.14 -29.4,-65.54 -65.54,-65.54" /><path
         id="path156"
         style="fill:#1c0102;fill-opacity:1;fill-rule:nonzero;stroke:none"
         d="m 7998.07,2610 c -26.96,0 -48.89,-21.94 -48.89,-48.9 0,-26.95 21.93,-48.89 48.89,-48.89 26.96,0 48.9,21.94 48.9,48.89 0,26.96 -21.94,48.9 -48.9,48.9 z m 0,-110.17 c -33.79,0 -61.27,27.49 -61.27,61.27 0,33.79 27.48,61.28 61.27,61.28 33.79,0 61.28,-27.49 61.28,-61.28 0,-33.78 -27.49,-61.27 -61.28,-61.27" /><path
         id="path158"
         style="fill:#1c0102;fill-opacity:1;fill-rule:nonzero;stroke:none"
         d="m 8276.07,2550.15 c -4.12,0 -8.26,-0.58 -12.34,-1.77 -11.32,-3.26 -20.68,-10.75 -26.36,-21.07 -5.69,-10.32 -7.02,-22.23 -3.73,-33.55 3.27,-11.32 10.76,-20.68 21.07,-26.37 10.33,-5.69 22.22,-7.02 33.55,-3.73 23.35,6.76 36.86,31.27 30.09,54.64 v 0 c -3.26,11.3 -10.74,20.66 -21.07,26.34 -6.6,3.66 -13.87,5.51 -21.21,5.51 z m -0.15,-100.64 c -9.4,0 -18.71,2.37 -27.19,7.04 -13.21,7.28 -22.8,19.28 -27,33.77 -4.18,14.49 -2.49,29.75 4.79,42.97 7.28,13.22 19.27,22.8 33.78,26.99 14.49,4.2 29.73,2.49 42.96,-4.79 13.21,-7.28 22.8,-19.26 27,-33.76 v 0 c 8.65,-29.92 -8.64,-61.3 -38.56,-69.97 -5.19,-1.51 -10.51,-2.25 -15.78,-2.25" /><path
         id="path160"
         style="fill:#1c0102;fill-opacity:1;fill-rule:nonzero;stroke:none"
         d="m 8531.15,2478.41 c -3.15,0 -6.34,-0.44 -9.51,-1.35 -18.12,-5.25 -28.59,-24.25 -23.35,-42.36 5.26,-18.12 24.25,-28.58 42.37,-23.33 8.77,2.54 16.03,8.34 20.44,16.35 4.41,7.99 5.45,17.23 2.9,26.01 -4.33,14.93 -18.03,24.68 -32.85,24.68 z m -0.07,-80.81 c -7.76,0 -15.42,1.97 -22.42,5.81 -10.89,6.01 -18.8,15.89 -22.26,27.85 -3.46,11.95 -2.06,24.54 3.95,35.44 6,10.89 15.89,18.8 27.86,22.26 24.61,7.13 50.54,-7.11 57.69,-31.8 v 0 c 3.46,-11.94 2.05,-24.53 -3.95,-35.43 -6,-10.89 -15.89,-18.8 -27.86,-22.26 -4.28,-1.25 -8.67,-1.87 -13.01,-1.87" /><path
         id="path162"
         style="fill:#f45a56;fill-opacity:1;fill-rule:nonzero;stroke:none"
         d="m 8543.26,632.059 h -967.83 c -52.93,0 -95.83,42.902 -95.83,95.832 v 294.959 c 0,52.93 42.9,95.83 95.83,95.83 h 967.83 c 52.93,0 95.83,-42.9 95.83,-95.83 V 727.891 c 0,-52.93 -42.9,-95.832 -95.83,-95.832" /><path
         id="path164"
         style="fill:#362b29;fill-opacity:1;fill-rule:nonzero;stroke:none"
         d="m 8471.15,1068.16 c -1.99,0 -4,-0.06 -6.02,-0.2 l -965.7,-64.42 c -49.52,-3.32 -87.1,-46.29 -83.81,-95.778 l 19.63,-294.313 c 3.32,-49.5 46.18,-87.289 95.78,-83.801 l 965.68,64.422 c 23.99,1.61 45.92,12.45 61.74,30.539 15.83,18.102 23.67,41.262 22.07,65.231 l -19.63,294.301 c -3.18,47.489 -42.82,84.019 -89.74,84.019 z M 7524.98,517.762 c -53,0 -97.8,41.258 -101.39,94.898 l -19.64,294.301 c -3.73,55.937 38.75,104.499 94.69,108.239 l 965.69,64.42 c 55.96,3.69 104.48,-38.74 108.23,-94.679 l 19.63,-294.3 c 1.81,-27.121 -7.05,-53.289 -24.93,-73.731 -17.88,-20.441 -42.67,-32.711 -69.76,-34.512 L 7531.83,517.98 c -2.31,-0.152 -4.57,-0.218 -6.85,-0.218" /><path
         id="path166"
         style="fill:#5e4789;fill-opacity:1;fill-rule:nonzero;stroke:none"
         d="m 244.633,3239.94 c 0,0 276.336,172.75 441.945,45.78 l -35.39,-97.99 H 374.949 l -130.316,52.21" /><path
         id="path168"
         style="fill:#5e4789;fill-opacity:1;fill-rule:nonzero;stroke:none"
         d="m 2640.82,1708.71 c 0,0 178.5,-268.66 368.03,-258.54 l 27.61,237.25 -189.54,131.7 -206.1,-110.41" /><path
         id="path170"
         style="fill:#1c0102;fill-opacity:1;fill-rule:nonzero;stroke:none"
         d="m 1773.32,3921.23 c 19.71,32.27 53.27,53.75 88.09,68.51 51.83,21.97 124.13,24.96 152.33,-23.77 95.11,39.92 210.49,46.12 297.24,-9.68 86.75,-55.8 127.6,-184.06 68.17,-268.36 98.04,19.84 205.38,-28.91 257.54,-114.26 52.15,-85.35 47.38,-201.15 -9.1,-283.7 80.89,-16.56 157.63,-62.54 200.81,-132.9 43.18,-70.36 47.96,-165.66 2.58,-234.63 38.03,-4.3 69.74,-33.53 86.55,-67.9 16.83,-34.36 21.09,-73.4 23.2,-111.6 5,-90.9 -3.49,-189.62 -62.49,-258.95 -50.38,-59.2 -128.86,-86.27 -205.2,-100.9 -266.07,-50.98 -554.21,25.06 -758.58,202.87 -63.89,55.59 -120.52,121.62 -153.86,199.47 -34.82,81.28 -42.72,171.35 -45.45,259.73 -3.57,115.18 0.98,231.16 23.91,344.09 16.15,79.5 41.37,157.36 50,238.03 4.68,43.85 4.37,88.23 -0.87,132.03 -2.12,17.66 -2.18,41.06 -12.95,55.75 -10.47,14.28 -16.56,28.7 -17.39,46.7 -0.96,20.71 4.69,41.8 15.47,59.47" /><path
         id="path172"
         style="fill:#9d83c6;fill-opacity:1;fill-rule:nonzero;stroke:none"
         d="m 2372.16,2269.95 c -64.81,-155.91 -219.57,-378.8 -106.73,-539.16 30.76,-43.72 90.9,-56.13 81.32,-108.72 -19.56,-107.43 -101.55,-195.86 -198.23,-246.61 -96.68,-50.75 -207.06,-68.7 -315.83,-78.37 -119.16,-10.6 -239.12,-12.16 -358.52,-4.64 -101.55,6.4 -139.7,-40.49 -221.74,19.71 -82.04,60.19 -108.04,181.92 -57.97,270.5 131.28,232.25 -241.339,603.23 -196.554,866.24 33.034,193.98 160.984,356.31 284.624,509.4 55.36,68.54 115.4,140.42 199.08,168.01 45.34,14.95 93.97,15.49 141.7,15.88 65.82,0.54 131.65,1.07 197.47,1.61 68,0.56 136.8,1.03 202.91,-14.83 163.03,-39.12 290.37,-175.97 352.3,-331.77 61.92,-155.81 60.53,-372.43 -3.83,-527.25" /><path
         id="path174"
         style="fill:#ff926c;fill-opacity:1;fill-rule:nonzero;stroke:none"
         d="m 1555.22,3094.21 c 10.71,52.22 112.8,236.78 138.4,283.54 -41.45,-0.79 -83.03,6.82 -121.53,22.21 -5.16,2.06 -10.48,4.42 -14,8.73 -4.68,5.72 -5.26,13.68 -5.29,21.08 -0.37,68.05 27.1,133.23 60.26,192.66 52.7,94.48 121.12,180.16 201.59,252.46 36.85,33.11 103.78,-11.64 134.62,-50.41 32,-40.23 47.4,-92.88 44.01,-144.17 -3.39,-51.3 -25.17,-100.89 -59.25,-139.37 -8.69,-9.81 -18.09,-25.58 -8.1,-34.04 4.33,-3.67 10.62,-3.73 16.23,-2.94 14.46,2.05 28.71,8.56 43.12,6.11 18.53,-3.13 31.92,-20.99 35.16,-39.51 3.25,-18.52 -1.69,-37.47 -7.97,-55.19 -5.39,-15.17 -13.36,-31.53 -28.53,-36.91 -20.08,-7.12 -40.95,8.51 -62.22,9.48 -20.48,0.92 -39.58,-12.33 -50.89,-29.42 -11.3,-17.1 -16.1,-37.59 -19.85,-57.74 -7.46,-40.08 -11.52,-154.64 -12.19,-195.39 -3.08,-2.57 -303.27,-107.24 -283.57,-11.18" /><path
         id="path176"
         style="fill:#ff926c;fill-opacity:1;fill-rule:nonzero;stroke:none"
         d="m 590.199,3459.55 c -14.797,28.4 -1.015,63.2 16.699,89.87 17.715,26.66 40.137,52.49 43.797,84.29 3.067,26.63 -8.422,53.93 -27.828,72.41 -19.406,18.49 -46.004,28.51 -72.746,30.3 -22.273,1.48 -47.019,-3.76 -60.496,-21.55 -13.477,-17.79 -7.227,-49.56 14.563,-54.38 6.14,-1.36 12.652,-0.53 18.71,-2.21 12.653,-3.51 20.204,-17.74 19.258,-30.83 -0.953,-13.09 -8.722,-24.83 -18.129,-33.98 -15.757,-15.32 -38.359,-25.23 -59.843,-20.61 -21.485,4.63 -39.239,26.99 -34.051,48.35 6.383,26.24 41.609,41.06 40.617,68.04 -0.473,12.99 -10.219,24.34 -22.031,29.74 -11.813,5.41 -25.332,5.75 -38.254,4.38 -27.25,-2.89 -54.406,-13.6 -73.086,-33.65 -18.68,-20.06 -27.469,-50.2 -18.27,-76.02 -13.597,41.28 -11.906,87.98 5.829,127.65 7.843,17.55 18.511,33.72 26.46,51.23 7.95,17.5 13.161,37.14 9.172,55.95 -3.992,18.81 -19.175,36.15 -38.332,37.78 -9.578,0.81 -19.066,-2.22 -27.918,-5.95 -36.16,-15.25 -66.929,-43.65 -83.39,-79.28 -16.461,-35.62 -18.004,-78.21 -2.524,-114.27 0.707,-1.66 1.961,-3.6 3.746,-3.32 1.782,0.29 0.532,3.95 -0.593,2.54 -13.957,21.5 -19.075,46.62 -24.188,71.74 -5.109,25.13 -21.594,52.57 -47.223,53.12 -9.32,0.2 -18.386,-3.37 -26.289,-8.33 -35.8356,-22.46 -47.4996,-70.55 -41.7731,-112.45 15.2735,-111.7 121.8051,-185.29 177.9101,-283.08 27.793,-48.43 43.02,-102.82 61.203,-155.62 11.903,-34.56 4.239,-69.79 29.024,-96.66 15.601,-16.91 39.011,-23.94 61.519,-28.74 62.117,-13.24 133.543,-12.52 181.145,29.53 47.867,42.28 57.203,113.77 50.207,177.25 -4.864,44.09 -22.403,87.43 -42.895,126.76" /><path
         id="path178"
         style="fill:#ff926c;fill-opacity:1;fill-rule:nonzero;stroke:none"
         d="m 1576.56,3139.28 c -103.44,-171.05 -157.97,-371.32 -155.54,-571.22 192.32,125 352.74,311.66 435.92,525.42 4.36,11.24 8.62,22.98 7.82,35.01 -0.67,10.06 -4.82,19.5 -8.9,28.71 -14.58,32.85 -29.17,65.71 -43.75,98.56 -2,4.52 -4.17,9.25 -8.12,12.22 -9.32,7 -22.44,0.93 -32.36,-5.19 -61.83,-38.18 -157.46,-61.32 -195.07,-123.51" /><path
         id="path180"
         style="fill:#9d83c6;fill-opacity:1;fill-rule:nonzero;stroke:none"
         d="m 1187.78,2837.71 c -55.05,-77.92 -131.01,-162.6 -205.854,-214.8 -12.633,-8.81 -26.16,-17.35 -41.422,-19.45 -39.863,-5.49 -71.117,33.25 -88.637,69.48 -27.324,56.5 -29.887,63.01 -45.906,123.69 -53.391,202.25 -65.988,286.84 -119.383,489.09 -125.887,-84.18 -299.398,-96.92 -441.945,-45.78 45.996,-214.27 30.945,-317.4 79.472,-531.12 19.454,-85.67 47.641,-168.73 74.086,-252.51 179.082,-567.27 464.985,-479.34 780.619,-428.76 26.08,4.18 53.63,10.69 71.85,29.82 15.94,16.74 22.02,40.36 26.71,62.99 43.03,207.53 -1.05,524.77 -89.59,717.35" /><path
         id="path182"
         style="fill:#ead5cc;fill-opacity:1;fill-rule:nonzero;stroke:none"
         d="m 2547.97,133.02 c 97.67,252.039 161.09,571.761 158.12,842.05 -1.29,117.37 -13.27,238.09 -67.18,342.35 -32.28,62.41 -78.31,116.45 -123.94,169.88 -88.83,104.03 -177.67,208.05 -266.51,312.09 -166.5,-61.24 -331.18,-108.59 -505.28,-142.74 -174.1,-34.16 -356.72,-40.08 -527.11,9.37 -115.29,-234.63 -158.92,-492.24 -159.91,-753.661 -0.99,-261.41 38.12,-521.168 79.15,-779.339 h 1412.66" /><path
         id="path184"
         style="fill:#ff926c;fill-opacity:1;fill-rule:nonzero;stroke:none"
         d="m 2756.75,1795.2 c -45.92,-18.86 -35.09,-168.71 -84.56,-172.81 -23.82,-1.97 -46.31,10.45 -66.12,23.8 -67.34,45.34 -127.24,107.82 -206.43,125.68 -49.47,11.15 -101.19,3.31 -150.63,-8 -33.94,-7.76 -68.81,-17.82 -94.82,-40.96 -26,-23.14 -40.35,-62.87 -24.5,-93.87 15.86,-30.98 67.41,-38.97 85.25,-9.08 -37.17,-8.9 -82.26,-28.75 -87.63,-66.6 -4.48,-31.57 24.41,-60.04 55.56,-66.88 31.16,-6.84 63.35,2.11 93.99,10.98 -15.11,-6.31 -40.66,-22.13 -52.27,-33.67 -11.61,-11.54 -18.5,-29.41 -12.55,-44.66 6.39,-16.33 24.68,-24.4 41.73,-28.48 41.95,-10.03 87.22,-5.65 126.47,12.24 18.49,8.43 35.91,19.84 55.73,24.34 19.82,4.5 43.71,-0.02 54.43,-17.28 -17.18,-6.6 -34.91,-12.02 -52.11,-18.62 -23.12,-8.88 -47.24,-18.43 -63.41,-37.21 -16.17,-18.77 -21.03,-49.78 -3.79,-67.57 16.29,-16.8 44.32,-14.82 65.55,-5 21.23,9.83 39.16,25.9 60.63,35.2 28.87,12.5 63.29,11.43 91.33,-2.86 17.92,-9.13 33.41,-23.36 52.74,-28.95 31.5,-9.11 64.45,6.74 92.37,23.94 89.75,55.27 167.55,129.81 226.61,217.12 24.7,36.5 46.47,84.25 25.16,122.82 -9.72,17.6 -26.95,29.75 -44.66,39.25 -38.39,20.62 -143.77,123.68 -184.07,107.13" /><path
         id="path186"
         style="fill:#9d83c6;fill-opacity:1;fill-rule:nonzero;stroke:none"
         d="m 2052.17,3121.03 c 162.44,-42.75 353.35,-78.3 497.12,-165.17 199.88,-120.78 342.98,-314.9 473.53,-508.53 39.68,-58.84 79.04,-118.75 104.05,-185.17 57.33,-152.23 33.95,-321.75 4.26,-481.68 -18.32,-98.69 -122.28,-330.31 -122.28,-330.31 0,0 -41.55,66.46 -48.25,82.73 -42.7,103.58 -208.59,189.54 -319.78,175.81 -5.67,94.72 48,203.39 42.33,298.11 -1.22,20.28 -22.83,41.12 -13.04,58.93 10.22,18.6 -29.29,104.76 -145.22,150.14 -201.2,78.75 -375.39,189.32 -470.45,261.85 -171.77,131.05 -84.97,443.68 -2.27,643.29" /><path
         id="path188"
         style="fill:#e45a53;fill-opacity:1;fill-rule:nonzero;stroke:none"
         d="m 1693.62,3377.75 c 0,0 83.25,6.42 134.77,22.98 0,0 -95.37,-125.49 -199.73,-143.72 l 64.96,120.74" /><path
         id="path190"
         style="fill:#e45a53;fill-opacity:1;fill-rule:nonzero;stroke:none"
         d="m 318.09,3219.76 c 0,0 162.172,-36.77 314.094,35.29 0,0 3.543,36.48 0.91,77.74 0,0 -136.051,-77.78 -315.004,-113.03" /><path
         id="path192"
         style="fill:#e45a53;fill-opacity:1;fill-rule:nonzero;stroke:none"
         d="m 2716.19,1704.96 c 0,0 188.17,-33.52 246.17,-175.91 0,0 -19.94,-34.76 -56.6,-74.02 0,0 -39.67,181.78 -189.57,249.93" /><path
         id="path194"
         style="fill:#1c0102;fill-opacity:1;fill-rule:nonzero;stroke:none"
         d="m 1622.48,3542.96 c -0.57,0 -1.16,0.09 -1.75,0.26 -3.25,0.97 -5.1,4.39 -4.14,7.64 2.53,8.5 0.55,18.43 -5.05,25.29 -0.82,1 -1.72,2.01 -2.62,3.01 -4.58,5.12 -10.29,11.49 -8.64,20.16 2.14,11.22 15,14.74 19.21,15.9 5.61,1.53 11.26,2.91 16.92,4.29 11.7,2.86 23.8,5.82 35.06,10.1 18.63,7.1 32.16,17 40.2,29.41 1.86,2.86 5.69,3.65 8.51,1.81 2.85,-1.85 3.65,-5.65 1.81,-8.5 -9.51,-14.65 -25.02,-26.16 -46.16,-34.2 -11.96,-4.56 -24.44,-7.61 -36.5,-10.56 -5.55,-1.35 -11.1,-2.71 -16.59,-4.21 -6.33,-1.74 -9.93,-3.93 -10.38,-6.35 -0.48,-2.5 1.95,-5.44 5.71,-9.64 1.03,-1.15 2.06,-2.3 2.99,-3.44 8.23,-10.09 11.03,-24.09 7.32,-36.58 -0.79,-2.67 -3.24,-4.39 -5.9,-4.39" /><path
         id="path196"
         style="fill:#1c0102;fill-opacity:1;fill-rule:nonzero;stroke:none"
         d="m 1911.56,3659.75 c -5.69,0 -10.81,3.98 -12.02,9.77 -5.14,24.59 -23.65,46.27 -47.13,55.21 -6.33,2.42 -9.52,9.52 -7.1,15.87 2.43,6.34 9.52,9.52 15.86,7.11 31.1,-11.85 55.61,-40.57 62.44,-73.15 1.38,-6.64 -2.88,-13.16 -9.52,-14.55 -0.85,-0.18 -1.69,-0.26 -2.53,-0.26" /><path
         id="path198"
         style="fill:#1c0102;fill-opacity:1;fill-rule:nonzero;stroke:none"
         d="m 1764.81,3764.38 c -1.18,0 -2.38,0.17 -3.56,0.53 -11.98,3.62 -24.4,5.51 -36.93,5.62 -6.79,0.06 -12.24,5.61 -12.18,12.4 0.06,6.75 5.55,12.19 12.3,12.19 0.03,0 0.06,0 0.1,0 14.86,-0.13 29.6,-2.38 43.81,-6.68 6.52,-1.96 10.19,-8.82 8.21,-15.31 -1.59,-5.33 -6.47,-8.75 -11.75,-8.75" /><path
         id="path200"
         style="fill:#1c0102;fill-opacity:1;fill-rule:nonzero;stroke:none"
         d="m 1687.97,3376.09 c -16.66,0 -33.3,0.86 -49.79,2.6 -3.37,0.36 -5.82,3.38 -5.46,6.76 0.36,3.37 3.24,5.85 6.75,5.46 63.3,-6.65 128.81,-0.11 189.5,18.98 3.33,0.99 6.71,-0.79 7.7,-4.02 1.03,-3.24 -0.78,-6.69 -4,-7.71 -46.49,-14.61 -95.71,-22.07 -144.7,-22.07" /><path
         id="path202"
         style="fill:#ffffff;fill-opacity:1;fill-rule:nonzero;stroke:none"
         d="m 1662.9,3528.15 c 11.41,7.69 20.79,20.95 34.54,20.96 10.89,0.01 20.04,-9.04 24.06,-19.17 8.2,-20.7 -1.56,-46.08 -20.12,-58.36 -11.28,-7.46 -25.11,-10.31 -38.49,-9.22 -11.94,0.98 -24.33,4.79 -33.54,12.68 -7.11,6.08 -13.03,14.39 -15.45,23.51 -1.86,6.93 -1.32,15.27 5.6,19.15 5.19,2.9 11.57,2.33 17.28,2.48 7.58,0.19 14.9,1.79 21.65,5.31 1.54,0.8 3.04,1.69 4.47,2.66" /><path
         id="path204"
         style="fill:#1c0102;fill-opacity:1;fill-rule:nonzero;stroke:none"
         d="m 1693.39,3437.55 c -2.65,0 -5.08,1.71 -5.89,4.36 -0.98,3.25 0.85,6.68 4.09,7.67 7.58,2.3 14.26,7.53 18.31,14.31 1.74,2.93 5.51,3.86 8.44,2.13 2.91,-1.74 3.87,-5.52 2.13,-8.43 -5.6,-9.39 -14.82,-16.59 -25.29,-19.77 -0.61,-0.18 -1.2,-0.27 -1.79,-0.27" /><path
         id="path206"
         style="fill:#1c0102;fill-opacity:1;fill-rule:nonzero;stroke:none"
         d="m 1696.1,2798.99 c -1.27,0 -2.55,0.39 -3.67,1.21 -2.72,2.01 -3.3,5.87 -1.28,8.59 72.68,98.19 155.04,209.47 169.76,339.67 0.39,3.39 3.5,5.78 6.81,5.42 3.37,-0.38 5.8,-3.43 5.42,-6.8 -15.09,-133.48 -102.15,-251.09 -172.09,-345.6 -1.21,-1.64 -3.08,-2.49 -4.95,-2.49" /><path
         id="path208"
         style="fill:#1c0102;fill-opacity:1;fill-rule:nonzero;stroke:none"
         d="m 1532.09,1643.51 c -2.39,0 -4.66,1.39 -5.65,3.73 -65.96,154.53 -134.16,314.32 -174.65,480.76 -43.03,176.82 -31.13,309.53 36.39,405.72 46.18,65.83 117.69,110.18 180.79,149.32 2.87,1.77 6.68,0.91 8.46,-1.97 1.79,-2.89 0.9,-6.68 -1.98,-8.47 -62.1,-38.52 -132.47,-82.18 -177.22,-145.93 -65.35,-93.14 -76.65,-222.59 -34.51,-395.76 40.27,-165.45 108.26,-324.77 174.03,-478.85 1.32,-3.11 -0.13,-6.73 -3.25,-8.06 -0.79,-0.34 -1.61,-0.49 -2.41,-0.49" /><path
         id="path210"
         style="fill:#1c0102;fill-opacity:1;fill-rule:nonzero;stroke:none"
         d="m 1427.02,2566.94 c -3.11,0 -5.77,2.35 -6.09,5.52 -14.34,138.86 9.69,278.96 69.48,405.13 1.47,3.07 5.13,4.36 8.19,2.92 3.07,-1.45 4.38,-5.11 2.93,-8.18 -58.84,-124.15 -82.49,-261.98 -68.38,-398.61 0.35,-3.38 -2.1,-6.4 -5.48,-6.75 -0.22,-0.02 -0.43,-0.03 -0.65,-0.03" /><path
         id="path212"
         style="fill:#1c0102;fill-opacity:1;fill-rule:nonzero;stroke:none"
         d="m 2244.35,2711.41 c -2.35,0 -4.59,1.35 -5.61,3.64 -36.85,82.16 -50.79,172.85 -40.32,262.26 0.39,3.36 3.33,5.83 6.83,5.39 3.36,-0.4 5.77,-3.45 5.39,-6.82 -10.22,-87.21 3.38,-175.66 39.31,-255.81 1.4,-3.09 0.01,-6.73 -3.08,-8.12 -0.83,-0.36 -1.68,-0.54 -2.52,-0.54" /><path
         id="path214"
         style="fill:#1c0102;fill-opacity:1;fill-rule:nonzero;stroke:none"
         d="m 2646.58,2131.22 c -1.41,0 -2.83,0.49 -3.99,1.48 -36.18,30.86 -76.67,56.03 -120.37,74.81 -8.7,3.74 -17.54,7.23 -26.36,10.71 -20.94,8.28 -42.6,16.82 -62.38,28.78 -62.26,37.62 -95.15,101.22 -111.77,147.95 -21.02,59.03 -28.18,121.83 -35.1,182.56 -0.38,3.37 2.04,6.41 5.42,6.8 3.3,0.42 6.42,-2.03 6.81,-5.41 6.83,-60.05 13.9,-122.13 34.44,-179.84 15.97,-44.83 47.41,-105.8 106.57,-141.54 18.89,-11.42 40.05,-19.78 60.52,-27.86 8.95,-3.54 17.89,-7.06 26.7,-10.85 44.84,-19.28 86.39,-45.1 123.5,-76.76 2.58,-2.21 2.89,-6.08 0.69,-8.67 -1.22,-1.43 -2.95,-2.16 -4.68,-2.16" /><path
         id="path216"
         style="fill:#1c0102;fill-opacity:1;fill-rule:nonzero;stroke:none"
         d="m 2742.17,2093.74 c -6.67,0 -13.33,0.49 -19.92,1.49 -3.35,0.5 -5.67,3.64 -5.16,6.99 0.51,3.37 3.64,5.68 7,5.15 37.95,-5.73 78.88,7.08 106.77,33.45 2.47,2.33 6.36,2.22 8.7,-0.25 2.33,-2.46 2.22,-6.35 -0.24,-8.68 -25.75,-24.34 -61.62,-38.15 -97.15,-38.15" /><path
         id="path218"
         style="fill:#1c0102;fill-opacity:1;fill-rule:nonzero;stroke:none"
         d="m 2740.37,2142.26 c -1.08,0 -2.16,0.27 -3.16,0.87 -2.91,1.74 -3.86,5.52 -2.11,8.43 l 33.16,55.19 c 1.75,2.91 5.55,3.83 8.44,2.1 2.9,-1.75 3.86,-5.53 2.1,-8.44 l -33.15,-55.17 c -1.16,-1.93 -3.2,-2.98 -5.28,-2.98" /><path
         id="path220"
         style="fill:#1c0102;fill-opacity:1;fill-rule:nonzero;stroke:none"
         d="m 1238.05,2722.48 c -1.37,0 -2.77,0.46 -3.92,1.41 -2.6,2.16 -2.98,6.04 -0.8,8.65 41.66,50.28 69.19,113.65 77.5,178.44 0.43,3.37 3.58,5.69 6.88,5.32 3.37,-0.43 5.75,-3.51 5.31,-6.88 -8.6,-67.07 -37.1,-132.67 -80.23,-184.72 -1.22,-1.47 -2.97,-2.22 -4.74,-2.22" /><path
         id="path222"
         style="fill:#1c0102;fill-opacity:1;fill-rule:nonzero;stroke:none"
         d="m 1234.33,1769.36 c -2.34,0 -4.57,1.33 -5.59,3.6 -57.05,125.88 -116.04,256.04 -143.85,394.57 -21.89,109.04 -32.1,269.25 43.56,413.23 1.58,3.03 5.32,4.16 8.3,2.59 3,-1.58 4.17,-5.3 2.58,-8.3 -73.99,-140.8 -63.89,-298.01 -42.39,-405.09 27.54,-137.18 86.23,-266.68 142.99,-391.92 1.41,-3.09 0.03,-6.74 -3.06,-8.14 -0.82,-0.38 -1.68,-0.54 -2.54,-0.54" /><path
         id="path224"
         style="fill:#1c0102;fill-opacity:1;fill-rule:nonzero;stroke:none"
         d="m 846.656,2479.11 c -0.66,0 -1.328,0.1 -1.984,0.33 -3.215,1.1 -4.93,4.59 -3.828,7.81 7.746,22.71 19.242,43.75 34.164,62.54 2.125,2.65 5.988,3.07 8.64,0.99 2.653,-2.12 3.098,-5.98 0.989,-8.64 -14.047,-17.68 -24.867,-37.48 -32.164,-58.87 -0.868,-2.55 -3.258,-4.16 -5.817,-4.16" /><path
         id="path226"
         style="fill:#1c0102;fill-opacity:1;fill-rule:nonzero;stroke:none"
         d="m 926.145,2308.44 c -2.149,0 -4.235,1.13 -5.368,3.14 -18.773,33.61 -13.047,72.6 -7.511,110.31 5.281,35.93 10.261,69.88 -3.973,99.61 -1.465,3.06 -0.172,6.73 2.891,8.2 3.039,1.48 6.726,0.17 8.199,-2.89 15.859,-33.12 10.363,-70.53 5.043,-106.71 -5.473,-37.32 -10.649,-72.57 6.086,-102.51 1.66,-2.97 0.601,-6.71 -2.364,-8.37 -0.949,-0.53 -1.984,-0.78 -3.003,-0.78" /><path
         id="path228"
         style="fill:#1c0102;fill-opacity:1;fill-rule:nonzero;stroke:none"
         d="m 1626.46,1491.08 c -146.83,0 -293.59,20.33 -433.65,61.06 -3.25,0.95 -5.14,4.36 -4.19,7.62 0.95,3.24 4.34,5.16 7.62,4.18 285.39,-82.98 599.02,-80.65 883.1,6.62 3.24,1 6.69,-0.83 7.67,-4.07 1,-3.25 -0.82,-6.68 -4.07,-7.68 -146.92,-45.14 -301.74,-67.73 -456.48,-67.73" /><path
         id="path230"
         style="fill:#1c0102;fill-opacity:1;fill-rule:nonzero;stroke:none"
         d="m 1650.75,155.012 c -3.32,0 -6.04,2.648 -6.14,5.98 -3.47,129.547 -12.19,260.598 -25.9,389.547 -17.01,160.031 -47.64,323.039 -155.72,431.172 -2.4,2.398 -2.4,6.289 0,8.687 2.4,2.403 6.29,2.403 8.69,0 110.78,-110.839 142,-276.289 159.26,-438.566 13.74,-129.25 22.48,-260.652 25.97,-390.5 0.07,-3.402 -2.6,-6.223 -5.98,-6.32 -0.07,0 -0.13,0 -0.18,0" /><path
         id="path232"
         style="fill:#1c0102;fill-opacity:1;fill-rule:nonzero;stroke:none"
         d="m 1513.71,766.891 c -1.63,0 -3.25,0.64 -4.47,1.918 l -99.26,104.98 c -2.33,2.473 -2.22,6.363 0.24,8.691 2.47,2.36 6.36,2.211 8.69,-0.238 l 99.27,-104.98 c 2.33,-2.473 2.21,-6.364 -0.25,-8.692 -1.18,-1.14 -2.7,-1.679 -4.22,-1.679" /><path
         id="path234"
         style="fill:#1c0102;fill-opacity:1;fill-rule:nonzero;stroke:none"
         d="m 2494.52,1086.01 c -43.33,0 -89.21,7.19 -135.65,21.82 -200.19,63.1 -353.57,237.27 -381.68,433.39 -0.48,3.36 1.86,6.47 5.21,6.96 3.28,0.49 6.47,-1.85 6.97,-5.22 27.44,-191.54 177.41,-361.69 373.2,-423.41 120.71,-38.01 237.22,-24.53 311.72,36.1 2.63,2.12 6.5,1.76 8.64,-0.89 2.15,-2.63 1.74,-6.51 -0.89,-8.65 -48.76,-39.68 -114.51,-60.1 -187.52,-60.1" /><path
         id="path236"
         style="fill:#1c0102;fill-opacity:1;fill-rule:nonzero;stroke:none"
         d="m 2446.54,166.391 c -0.4,0 -0.79,0.039 -1.19,0.121 -3.34,0.636 -5.5,3.847 -4.87,7.187 54.48,282.832 106.16,610.461 29.17,919.281 -0.81,3.31 1.19,6.63 4.48,7.46 3.32,0.83 6.62,-1.18 7.45,-4.48 77.59,-311.261 25.7,-640.448 -29.02,-924.581 -0.57,-2.949 -3.14,-4.988 -6.02,-4.988" /><path
         id="path238"
         style="fill:#1c0102;fill-opacity:1;fill-rule:nonzero;stroke:none"
         d="m 1485.91,1636.7 c -64.34,0 -128.79,3.74 -193.16,11.23 -3.37,0.39 -5.78,3.45 -5.4,6.82 0.4,3.38 3.49,5.79 6.82,5.39 191.61,-22.31 383.99,-11.12 571.75,33.27 3.34,0.75 6.63,-1.26 7.39,-4.57 0.78,-3.3 -1.26,-6.61 -4.56,-7.39 -126.08,-29.81 -254.23,-44.75 -382.84,-44.75" /><path
         id="path240"
         style="fill:#1c0102;fill-opacity:1;fill-rule:nonzero;stroke:none"
         d="m 2599.39,1391.46 c -0.47,0 -0.95,0.06 -1.44,0.17 -36.55,8.79 -74.17,13.57 -111.79,14.19 -3.39,0.05 -6.11,2.85 -6.05,6.24 0.06,3.37 2.79,6.05 6.14,6.05 0.04,0 0.08,0 0.1,0 38.54,-0.64 77.05,-5.53 114.48,-14.52 3.3,-0.81 5.33,-4.13 4.53,-7.42 -0.68,-2.82 -3.19,-4.71 -5.97,-4.71" /><path
         id="path242"
         style="fill:#1c0102;fill-opacity:1;fill-rule:nonzero;stroke:none"
         d="m 2240.99,1470.08 c -1.76,0 -3.49,0.74 -4.71,2.19 -2.19,2.59 -1.84,6.47 0.74,8.66 42.76,35.97 101.62,54.87 165.62,53.6 52.43,-1.15 107.8,-15.35 169.29,-43.4 3.08,-1.41 4.43,-5.06 3.03,-8.15 -1.4,-3.1 -5.06,-4.44 -8.15,-3.04 -59.91,27.36 -113.71,41.19 -164.43,42.3 -60.9,1.39 -116.97,-16.67 -157.44,-50.72 -1.15,-0.96 -2.55,-1.44 -3.95,-1.44" /><path
         id="path244"
         style="fill:#1c0102;fill-opacity:1;fill-rule:nonzero;stroke:none"
         d="m 2149.17,1588.36 c -2.52,0 -4.88,1.56 -5.78,4.07 -1.14,3.21 0.51,6.72 3.7,7.86 73.23,26.27 149.71,42.52 227.31,48.29 16.42,1.24 35.49,2.21 53.94,-1.68 16.97,-3.61 32.65,-11.12 47.8,-18.38 16.59,-7.95 32.24,-15.46 49.34,-18.21 3.34,-0.53 5.63,-3.69 5.1,-7.04 -0.56,-3.36 -3.78,-5.64 -7.05,-5.09 -18.86,3.03 -36.06,11.27 -52.7,19.25 -15.17,7.28 -29.51,14.15 -45.03,17.43 -16.84,3.57 -34.92,2.62 -50.49,1.46 -76.5,-5.68 -151.87,-21.7 -224.06,-47.6 -0.68,-0.24 -1.39,-0.36 -2.08,-0.36" /><path
         id="path246"
         style="fill:#1c0102;fill-opacity:1;fill-rule:nonzero;stroke:none"
         d="m 2364.77,1303.39 c -2.95,0 -5.56,2.15 -6.06,5.17 -0.54,3.35 1.73,6.5 5.08,7.05 22.93,3.73 40.86,28.07 37.61,51.07 -0.49,3.36 1.85,6.48 5.21,6.94 3.43,0.54 6.48,-1.85 6.96,-5.22 4.2,-29.77 -18.13,-60.11 -47.81,-64.93 -0.33,-0.05 -0.66,-0.08 -0.99,-0.08" /><path
         id="path248"
         style="fill:#1c0102;fill-opacity:1;fill-rule:nonzero;stroke:none"
         d="m 2234.52,1407.37 c -2.7,0 -5.19,1.81 -5.93,4.56 -0.88,3.29 1.06,6.66 4.34,7.53 14.14,3.79 26.36,15.17 31.15,28.99 4.78,13.82 2.21,30.33 -6.55,42.04 -2.03,2.71 -1.47,6.56 1.23,8.6 2.71,2.02 6.56,1.49 8.62,-1.25 11.3,-15.1 14.48,-35.57 8.33,-53.41 -6.19,-17.84 -21.35,-31.96 -39.58,-36.84 -0.54,-0.15 -1.08,-0.22 -1.61,-0.22" /><path
         id="path250"
         style="fill:#1c0102;fill-opacity:1;fill-rule:nonzero;stroke:none"
         d="m 2149.07,1511.96 c -2.75,0 -5.25,1.87 -5.96,4.65 -0.81,3.29 1.18,6.63 4.47,7.46 16.78,4.22 31.37,16.75 38.08,32.72 6.71,15.96 5.44,35.15 -3.3,50.09 -1.72,2.93 -0.74,6.7 2.19,8.41 2.95,1.7 6.7,0.74 8.42,-2.2 10.66,-18.21 12.2,-41.6 4.01,-61.07 -8.17,-19.45 -25.94,-34.72 -46.4,-39.87 -0.51,-0.13 -1.01,-0.19 -1.51,-0.19" /><path
         id="path252"
         style="fill:#1c0102;fill-opacity:1;fill-rule:nonzero;stroke:none"
         d="m 2151.93,1647.77 c -3.01,0 -5.64,2.2 -6.08,5.27 -0.49,3.36 1.85,6.47 5.21,6.95 17.43,2.5 33.59,13.6 42.17,28.98 8.59,15.37 9.56,34.95 2.53,51.1 -1.34,3.11 0.09,6.73 3.2,8.09 3.09,1.35 6.74,-0.07 8.09,-3.2 8.51,-19.58 7.32,-43.34 -3.08,-61.98 -10.41,-18.65 -30.02,-32.12 -51.16,-35.16 -0.3,-0.04 -0.59,-0.05 -0.88,-0.05" /><path
         id="path254"
         style="fill:#1c0102;fill-opacity:1;fill-rule:nonzero;stroke:none"
         d="m 374.953,3532.55 c -1.547,0 -3.101,0.59 -4.293,1.75 -19.492,18.99 -41.351,42.31 -55.676,71.21 -15.242,30.72 -18.972,62.88 -10.488,90.58 0.996,3.24 4.422,5.1 7.68,4.08 3.246,-0.99 5.066,-4.44 4.07,-7.68 -7.551,-24.68 -4.09,-53.63 9.742,-81.52 13.516,-27.24 34.504,-49.6 53.258,-67.87 2.43,-2.37 2.477,-6.26 0.106,-8.69 -1.2,-1.24 -2.801,-1.86 -4.399,-1.86" /><path
         id="path256"
         style="fill:#1c0102;fill-opacity:1;fill-rule:nonzero;stroke:none"
         d="m 291.488,3510.13 c -2,0 -3.961,0.97 -5.136,2.77 -47.313,71.89 -87.125,137.61 -95.223,213.9 -0.359,3.37 2.086,6.4 5.461,6.76 3.476,0.29 6.406,-2.09 6.758,-5.47 7.812,-73.54 46.863,-137.9 93.265,-208.44 1.871,-2.83 1.086,-6.65 -1.754,-8.51 -1.043,-0.68 -2.211,-1.01 -3.371,-1.01" /><path
         id="path258"
         style="fill:#1c0102;fill-opacity:1;fill-rule:nonzero;stroke:none"
         d="m 509.898,3336.62 c -1.515,0 -3.035,0.55 -4.226,1.68 -33.078,31.28 -50.703,59.89 -55.461,90.05 -0.559,3.56 -0.941,7.19 -1.32,10.82 -0.965,9.19 -1.868,17.87 -5.828,25.11 -8.543,15.63 -29.09,20.43 -45.54,19.82 -9.82,-0.39 -19.429,-2.23 -29.609,-4.17 -9.324,-1.77 -18.957,-3.61 -28.762,-4.24 -3.336,-0.13 -6.308,2.36 -6.523,5.75 -0.215,3.38 2.355,6.31 5.742,6.52 9.039,0.58 17.875,2.27 27.242,4.05 10.164,1.94 20.684,3.94 31.414,4.37 19.977,0.86 45.582,-5.63 56.825,-26.2 5.14,-9.41 6.218,-19.74 7.265,-29.73 0.356,-3.42 0.707,-6.84 1.235,-10.19 4.312,-27.33 20.765,-53.72 51.769,-83.03 2.465,-2.33 2.574,-6.22 0.242,-8.69 -1.207,-1.28 -2.836,-1.92 -4.465,-1.92" /><path
         id="path260"
         style="fill:#1c0102;fill-opacity:1;fill-rule:nonzero;stroke:none"
         d="m 425.965,3678.74 c -4.652,0 -9.231,0.99 -13.649,3.37 -12.503,6.74 -16.464,20.98 -18.882,35.37 -0.567,3.35 1.699,6.52 5.039,7.09 3.414,0.53 6.519,-1.7 7.086,-5.05 1.906,-11.31 4.742,-22.36 12.593,-26.59 8.328,-4.5 19.633,-0.06 30.625,5.41 3.024,1.51 6.727,0.26 8.243,-2.77 1.507,-3.04 0.273,-6.73 -2.77,-8.24 -9.297,-4.63 -18.949,-8.59 -28.285,-8.59" /><path
         id="path262"
         style="fill:#1c0102;fill-opacity:1;fill-rule:nonzero;stroke:none"
         d="m 499.754,3695.52 c -3.41,0 -6.789,0.46 -10.074,1.39 -3.27,0.91 -5.164,4.31 -4.242,7.58 0.914,3.27 4.335,5.19 7.582,4.24 7.75,-2.18 16.828,-0.3 24.32,5.06 7.492,5.34 12.234,13.32 12.691,21.35 0.18,3.39 2.875,6.08 6.481,5.79 3.386,-0.19 5.98,-3.09 5.785,-6.49 -0.664,-11.88 -7.156,-23.06 -17.817,-30.67 -7.609,-5.42 -16.246,-8.25 -24.726,-8.25" /><path
         id="path264"
         style="fill:#1c0102;fill-opacity:1;fill-rule:nonzero;stroke:none"
         d="m 290.824,3842.99 c -6.261,0 -12.609,1.64 -17.883,4.78 -6.625,3.94 -11.062,9.9 -12.496,16.79 -0.699,3.32 1.442,6.58 4.758,7.27 3.317,0.72 6.57,-1.44 7.27,-4.76 0.933,-4.46 4.183,-7.21 6.75,-8.73 5.086,-3.03 12.05,-3.88 17.683,-2.2 11.606,3.5 20.375,14.32 26.723,23.36 1.949,2.79 5.781,3.47 8.562,1.51 2.778,-1.96 3.45,-5.79 1.504,-8.56 -7.488,-10.66 -18.027,-23.49 -33.234,-28.07 -3.074,-0.93 -6.348,-1.39 -9.637,-1.39" /><path
         id="path266"
         style="fill:#1c0102;fill-opacity:1;fill-rule:nonzero;stroke:none"
         d="m 88.4648,3738.47 c -5.8359,0 -11.9101,2.98 -14.0195,9.19 -1.0976,3.22 0.625,6.7 3.8399,7.8 3.2461,1.09 6.7187,-0.63 7.7968,-3.84 0.1407,-0.43 1.8828,-1.2 3.5039,-0.71 2.6719,0.79 5.1133,3.37 7.3594,6.05 9.8787,11.76 17.3637,25.77 21.6567,40.52 0.945,3.25 4.316,5.13 7.617,4.18 3.261,-0.95 5.133,-4.36 4.183,-7.62 -4.761,-16.38 -13.074,-31.93 -24.039,-44.99 -3.312,-3.95 -7.4919,-8.22 -13.2927,-9.93 -1.4609,-0.43 -3.0273,-0.65 -4.6055,-0.65" /><path
         id="path268"
         style="fill:#ff926c;fill-opacity:1;fill-rule:nonzero;stroke:none"
         d="m 157.961,3426.89 c -45.215,24.81 -96.8751,43.13 -128.3204,84.01 -20.17185,26.22 -29.824194,60.31 -26.40622,93.21 2.22265,21.35 14.01952,45.64 35.39452,47.6 19.2383,1.76 34.7461,-15.78 42.9024,-33.29 8.1601,-17.51 13.1328,-37.46 27.3047,-50.59 10.082,-9.33 23.519,-13.92 36.219,-19.16 65.3,-26.96 120.328,-78.01 152.09,-141.11 8.625,-17.13 15.878,-36.1 15.046,-55.61 -0.546,-12.89 -2.918,-34.41 -20.75,-30.53 -15.078,3.28 -26.328,22.81 -36.699,33.09 -13.5,13.4 -27.879,25.91 -43.015,37.42 -17.028,12.96 -35.004,24.66 -53.766,34.96" /><path
         id="path270"
         style="fill:#1c0102;fill-opacity:1;fill-rule:nonzero;stroke:none"
         d="m 243.871,3477.25 c -1.523,0 -3.055,0.57 -4.246,1.7 -32.695,31.21 -70.371,55.94 -111.977,73.53 -3.128,1.32 -4.589,4.93 -3.265,8.06 1.316,3.12 4.898,4.57 8.055,3.26 42.976,-18.16 81.902,-43.72 115.679,-75.95 2.453,-2.35 2.543,-6.24 0.199,-8.69 -1.203,-1.27 -2.824,-1.91 -4.445,-1.91" /><path
         id="path272"
         style="fill:#1c0102;fill-opacity:1;fill-rule:nonzero;stroke:none"
         d="m 6.14063,3572.32 c -3.22266,0 -5.929692,2.5 -6.1289112,5.77 -0.2109378,3.39 2.3750012,6.3 5.7617212,6.51 6.89066,0.42 11.24606,9.89 12.87106,17.87 2.3086,11.38 2.6016,22.98 0.8711,34.45 -0.5156,3.35 1.7891,6.48 5.1563,6.99 3.3476,0.56 6.4883,-1.79 6.9922,-5.15 1.957,-12.9 1.625,-25.94 -0.9766,-38.74 -2.6133,-12.84 -10.3398,-26.85 -24.16797,-27.69 -0.125,-0.01 -0.2539,-0.01 -0.3789,-0.01" /><path
         id="path274"
         style="fill:#1c0102;fill-opacity:1;fill-rule:nonzero;stroke:none"
         d="m 1825.35,3635.7 c -8.38,-12.08 -21.44,-17.52 -29.16,-12.16 -7.72,5.36 -7.18,19.5 1.2,31.58 8.38,12.08 21.44,17.52 29.17,12.16 7.72,-5.36 7.18,-19.5 -1.21,-31.58" /><path
         id="path276"
         style="fill:#1c0102;fill-opacity:1;fill-rule:nonzero;stroke:none"
         d="m 1693.76,3672.58 c -7.22,-10.41 -18.47,-15.1 -25.13,-10.48 -6.66,4.62 -6.2,16.8 1.03,27.21 7.23,10.41 18.49,15.11 25.14,10.49 6.66,-4.62 6.19,-16.81 -1.04,-27.22" /><path
         id="path278"
         style="fill:#584848;fill-opacity:1;fill-rule:nonzero;stroke:none"
         d="m 2622.55,3042.53 c -0.4,0 -0.8,0.03 -1.2,0.11 -3.33,0.66 -5.5,3.89 -4.84,7.22 19.53,99.48 -56.66,221.62 -153.82,246.58 l -7.81,2.01 4.01,7.01 c 28.75,50.22 32.25,114.64 9.33,172.33 -21.28,53.64 -63.75,99.52 -119.57,129.17 -16.57,8.8 -58,26.9 -84.76,4.94 -2.65,-2.15 -6.5,-1.77 -8.65,0.86 -2.15,2.62 -1.77,6.49 0.85,8.65 32.54,26.65 79.61,6.36 98.33,-3.59 58.39,-31.03 102.87,-79.15 125.23,-135.49 23.24,-58.54 20.77,-123.75 -6.35,-176.1 100.95,-30.91 175.8,-154.16 155.26,-258.74 -0.58,-2.93 -3.15,-4.96 -6.01,-4.96" /><path
         id="path280"
         style="fill:#584848;fill-opacity:1;fill-rule:nonzero;stroke:none"
         d="m 2330.71,3252.08 c -0.3,0 -0.59,0.02 -0.88,0.06 -3.37,0.49 -5.7,3.6 -5.22,6.96 5.67,39.48 1.22,80.08 -12.87,117.39 -9.22,24.42 -20.85,41.53 -35.56,52.3 -17.64,12.92 -40.97,15.27 -56.74,5.71 -2.88,-1.74 -6.67,-0.84 -8.44,2.07 -1.76,2.91 -0.83,6.69 2.08,8.45 20.2,12.25 48.48,9.71 70.37,-6.31 16.68,-12.22 29.7,-31.16 39.79,-57.88 14.82,-39.25 19.5,-81.95 13.54,-123.48 -0.44,-3.06 -3.07,-5.27 -6.07,-5.27" /><path
         id="path282"
         style="fill:#ab93d8;fill-opacity:1;fill-rule:nonzero;stroke:none"
         d="m 2089.13,1762.34 c -59.49,55.9 -85.37,106.88 -79.11,155.84 3.53,27.45 17.11,51.66 30.25,75.08 10.56,18.81 21.47,38.27 26.7,58.87 5.19,20.59 4.82,41.7 4.41,64.06 -0.24,13.58 -0.5,27.62 0.63,41.46 4.58,56.02 32.08,108.63 75.48,144.34 43.39,35.71 100.4,52.55 156.15,46.3 l -1.37,-12.22 c -51.75,5.87 -106.73,-10.45 -146.97,-43.58 -40.23,-33.1 -66.79,-83.9 -71.04,-135.84 -1.07,-13.23 -0.82,-26.96 -0.59,-40.23 0.4,-22.19 0.82,-45.12 -4.8,-67.31 -5.61,-22.18 -16.93,-42.35 -27.88,-61.87 -13.15,-23.42 -25.56,-45.55 -28.77,-70.61 -5.72,-44.78 18.91,-92.32 75.34,-145.33 l -8.43,-8.96" /><path
         id="path284"
         style="fill:#ab93d8;fill-opacity:1;fill-rule:nonzero;stroke:none"
         d="m 2824.68,2473.48 c -31.38,-0.01 -59.85,9.44 -79.79,26.8 -14.12,12.28 -23.96,28.13 -33.48,43.46 -8.13,13.07 -15.81,25.43 -25.93,35.82 -16,16.43 -36.64,26.54 -58.48,37.25 -18.31,8.97 -37.22,18.24 -53.27,31.61 -36.34,30.29 -56.64,80.9 -55.68,138.88 0.84,51.07 16.67,99.87 31.97,147.05 l 11.7,-3.79 c -15.03,-46.33 -30.58,-94.23 -31.39,-143.47 -0.88,-54.23 17.8,-101.33 51.28,-129.22 14.91,-12.42 33.15,-21.37 50.79,-30.02 21.83,-10.69 44.4,-21.76 61.89,-39.71 11.04,-11.36 19.43,-24.85 27.55,-37.91 9.46,-15.23 18.41,-29.6 31.11,-40.68 20.76,-18.06 52.26,-26.45 86.54,-23.04 31.62,3.16 62,15 91.39,26.45 l 4.46,-11.45 c -30.15,-11.75 -61.34,-23.9 -94.61,-27.23 -5.42,-0.54 -10.78,-0.8 -16.05,-0.8" /><path
         id="path286"
         style="fill:#ab93d8;fill-opacity:1;fill-rule:nonzero;stroke:none"
         d="m 3076.33,1658.79 -15.44,40.03 c -19.77,51.24 -40.2,104.21 -71.35,150.21 l -1.72,2.53 c -6.46,9.51 -13.16,19.32 -15.4,31.27 -2.57,13.73 1.39,27.18 5.3,38.69 21.92,64.43 72.24,136.74 147.78,146.48 l 1.56,-12.2 c -69.92,-9.01 -116.97,-77.31 -137.69,-138.23 -3.42,-10.04 -6.9,-21.66 -4.87,-32.47 1.77,-9.43 7.46,-17.77 13.48,-26.61 l 1.75,-2.56 c 31.91,-47.17 52.62,-100.81 72.64,-152.69 l 15.44,-40.03 -11.48,-4.42" /><path
         id="path288"
         style="fill:#ab93d8;fill-opacity:1;fill-rule:nonzero;stroke:none"
         d="m 1824.73,2710.19 c -12.46,-34.43 -23.09,-65.55 -26.81,-97.82 -6.98,-60.31 -1.56,-139.92 34.63,-182.51 16.56,-19.5 38.58,-30.04 65.42,-31.31 32.26,-1.51 66.75,12.92 105.26,44.19 49.05,39.79 77.23,82.34 83.78,126.48 6.39,43.06 -8.12,86.24 -23.17,122.82 -13.88,33.8 -32.25,71.89 -63.17,98.2 -26.44,22.49 -69.4,37.78 -105.76,21.18 -37.01,-16.87 -54.96,-59.26 -70.18,-101.23 z m 77.93,-324.05 c -1.77,0 -3.51,0.04 -5.27,0.13 -30.39,1.44 -55.36,13.42 -74.22,35.64 -48.72,57.36 -41,161.36 -37.46,191.88 3.88,33.58 14.73,65.42 27.48,100.59 v 0 c 16.09,44.42 35.28,89.38 76.62,108.23 41.3,18.84 89.41,2 118.83,-23.01 32.92,-28.01 52.13,-67.73 66.59,-102.89 15.66,-38.12 30.76,-83.29 23.93,-129.29 -7,-47.27 -36.68,-92.44 -88.17,-134.23 -38.95,-31.62 -74.45,-47.05 -108.33,-47.05" /><path
         id="path290"
         style="fill:#ab93d8;fill-opacity:1;fill-rule:nonzero;stroke:none"
         d="m 1458.64,2012.74 -9.84,7.35 c 37.32,49.98 75.92,108.21 61.44,166.72 -3.42,13.83 -9.92,27.34 -16.2,40.43 -9.06,18.83 -18.42,38.31 -19.54,59.98 -1.05,20.53 5.46,39.94 11.77,58.7 4.47,13.33 9.11,27.11 10.75,40.81 2.94,24.57 -5.16,50.87 -22.2,72.15 -17.06,21.27 -40.95,34.89 -65.56,37.37 l 1.22,12.23 c 27.87,-2.81 54.82,-18.08 73.93,-41.91 19.1,-23.83 28.15,-53.47 24.81,-81.31 -1.79,-14.96 -6.63,-29.34 -11.31,-43.26 -6.21,-18.48 -12.08,-35.94 -11.14,-54.15 1,-19.2 9.42,-36.74 18.35,-55.29 6.55,-13.64 13.33,-27.74 17.05,-42.8 15.76,-63.72 -24.52,-124.79 -63.53,-177.02" /><path
         id="path292"
         style="fill:#ab93d8;fill-opacity:1;fill-rule:nonzero;stroke:none"
         d="m 1635.71,1690.38 c -0.32,24.84 -0.64,50.5 6.79,75.22 8.45,28.13 26.98,50.07 49.56,58.68 6.57,2.51 13.3,3.89 19.85,5.24 5.74,1.18 11.17,2.3 16.35,4.1 10.14,3.53 19.16,9.58 28.71,16 4.4,2.96 8.8,5.92 13.34,8.63 66.67,40.03 161.33,20.43 206.7,-42.74 l -9.99,-7.17 c -41.77,58.18 -128.94,76.25 -190.41,39.38 -4.33,-2.61 -8.56,-5.45 -12.79,-8.3 -9.77,-6.57 -19.88,-13.36 -31.52,-17.41 -5.95,-2.07 -12.03,-3.32 -17.91,-4.53 -6.33,-1.31 -12.33,-2.54 -17.95,-4.69 -19.05,-7.25 -34.81,-26.23 -42.18,-50.73 -6.87,-22.91 -6.56,-47.63 -6.26,-71.52 l -12.29,-0.16" /><path
         id="path294"
         style="fill:#ab93d8;fill-opacity:1;fill-rule:nonzero;stroke:none"
         d="m 1171.55,2059.76 -7.23,9.94 c 36.53,26.56 52.12,78.47 36.26,120.75 -2.5,6.64 -5.63,12.97 -8.95,19.67 -4.63,9.37 -9.42,19.06 -12.25,29.6 -7.77,28.84 0.23,57.93 7.97,86.05 7.18,26.08 13.96,50.73 9.28,75.16 -7.09,36.92 -38.2,63.67 -72.23,90.06 l 7.54,9.71 c 35.95,-27.89 68.88,-56.33 76.76,-97.45 5.23,-27.26 -2.26,-54.45 -9.49,-80.75 -7.65,-27.75 -14.86,-53.97 -7.97,-79.59 2.53,-9.36 6.85,-18.09 11.41,-27.34 3.3,-6.68 6.73,-13.58 9.43,-20.79 17.74,-47.29 0.32,-105.33 -40.53,-135.02" /><path
         id="path296"
         style="fill:#ab93d8;fill-opacity:1;fill-rule:nonzero;stroke:none"
         d="m 920.324,2038.71 c -3.578,60.7 -48.371,117.72 -106.5,135.59 -7,2.15 -14.172,3.81 -21.336,5.47 -13.996,3.24 -28.461,6.59 -41.691,13.54 -6.594,3.46 -12.641,7.7 -18.481,11.8 -4.742,3.32 -9.472,6.65 -14.488,9.51 -25.234,14.43 -57.324,15.86 -83.738,3.72 -26.418,-12.14 -46.231,-37.43 -51.699,-65.99 l -12.075,2.32 c 6.204,32.39 28.676,61.07 58.633,74.84 29.969,13.79 66.352,12.17 94.989,-4.22 5.421,-3.1 10.511,-6.67 15.433,-10.12 5.789,-4.06 11.242,-7.88 17.141,-10.97 11.832,-6.22 24.906,-9.25 38.746,-12.46 7.449,-1.72 14.906,-3.46 22.18,-5.68 62.851,-19.33 111.289,-80.99 115.156,-146.63 l -12.27,-0.72" /><path
         id="path298"
         style="fill:#ab93d8;fill-opacity:1;fill-rule:nonzero;stroke:none"
         d="m 477.527,2941.34 c -13.589,-47.31 -0.375,-100.85 33.653,-136.41 13.211,-13.81 19.265,-32.11 25.117,-49.81 6.281,-19 12.223,-36.95 26.308,-48.32 27.762,-22.41 71.942,-5.55 96.954,22.93 29.046,33.09 45.668,81.07 49.39,142.6 1.524,25.21 1.824,62.46 -13.054,94.6 -15.715,33.95 -48.356,59.32 -91.903,71.44 -27.988,7.8 -58.512,-4.6 -90.637,-36.87 -17.054,-17.13 -29.441,-37.93 -35.828,-60.16 z m 115.489,-257.05 c -13.731,0 -26.95,3.92 -38.129,12.94 -16.903,13.64 -23.692,34.18 -30.262,54.03 -5.668,17.16 -11.027,33.37 -22.332,45.17 -36.992,38.66 -51.348,96.87 -36.578,148.31 v 0 c 6.957,24.21 20.414,46.83 38.926,65.42 35.504,35.66 70.023,49.15 102.652,40.05 47.07,-13.1 82.504,-40.85 99.754,-78.12 16.051,-34.66 15.773,-73.96 14.172,-100.5 -3.887,-64.32 -21.528,-114.78 -52.434,-149.97 -19.125,-21.79 -48.441,-37.33 -75.769,-37.33" /><path
         id="path300"
         style="fill:#e45a53;fill-opacity:1;fill-rule:nonzero;stroke:none"
         d="m 1862.21,3544.38 c 0,-32.04 -25.98,-58.02 -58.02,-58.02 -32.04,0 -58.01,25.98 -58.01,58.02 0,32.04 25.97,58.01 58.01,58.01 32.04,0 58.02,-25.97 58.02,-58.01" /><path
         id="path302"
         style="fill:#9d83c6;fill-opacity:1;fill-rule:nonzero;stroke:none"
         d="m 663.977,3713.59 -268.258,129.8 452.711,935.62 268.26,-129.8 -452.713,-935.62" /><path
         id="path304"
         style="fill:#ffcf9f;fill-opacity:1;fill-rule:nonzero;stroke:none"
         d="m 848.43,4779.01 231.63,136.61 36.63,-266.41 z" /><path
         id="path306"
         style="fill:#ffcf9f;fill-opacity:1;fill-rule:nonzero;stroke:none"
         d="m 848.43,4779.01 c 0,0 1.254,-58.95 64.582,-31.24 0,0 20.004,-117.95 139.098,-67.31 0,0 13.82,-76.42 64.58,-31.25 l -129.612,114.06 -138.648,15.74" /><path
         id="path308"
         style="fill:#1b0202;fill-opacity:1;fill-rule:nonzero;stroke:none"
         d="m 663.422,4248.58 c -0.949,2.03 -1.008,4.46 0.047,6.64 l 206.508,426.79 c 1.863,3.84 6.484,5.45 10.328,3.59 3.847,-1.86 5.453,-6.48 3.593,-10.33 L 677.387,4248.49 c -1.864,-3.85 -6.485,-5.46 -10.328,-3.6 -1.664,0.81 -2.911,2.13 -3.637,3.69" /><path
         id="path310"
         style="fill:#1b0202;fill-opacity:1;fill-rule:nonzero;stroke:none"
         d="m 538.383,3990.16 c -0.949,2.04 -1.008,4.47 0.043,6.64 l 82.418,170.33 c 1.859,3.84 6.476,5.45 10.324,3.59 3.848,-1.87 5.445,-6.49 3.59,-10.33 l -82.41,-170.32 c -1.864,-3.84 -6.485,-5.45 -10.328,-3.59 -1.665,0.8 -2.911,2.12 -3.637,3.68" /><path
         id="path312"
         style="fill:#1b0202;fill-opacity:1;fill-rule:nonzero;stroke:none"
         d="m 599.371,3746.95 c -0.945,2.04 -1.004,4.46 0.047,6.64 l 375.48,776.01 c 1.864,3.84 6.485,5.45 10.329,3.59 3.847,-1.86 5.453,-6.48 3.593,-10.32 L 613.336,3746.86 c -1.859,-3.85 -6.484,-5.45 -10.324,-3.59 -1.668,0.8 -2.91,2.12 -3.641,3.68" /><path
         id="path314"
         style="fill:#1c0102;fill-opacity:1;fill-rule:nonzero;stroke:none"
         d="m 1080.06,4915.62 -59.23,-35.12 68.45,-33.12 z" /><path
         id="path316"
         style="fill:#ffb850;fill-opacity:1;fill-rule:nonzero;stroke:none"
         d="m 636.73,3657.3 -268.257,129.8 27.246,56.29 268.258,-129.8 -27.247,-56.29" /><path
         id="path318"
         style="fill:#f45a56;fill-opacity:1;fill-rule:nonzero;stroke:none"
         d="m 499.09,3576.76 -108.344,52.42 c -44.16,21.37 -62.637,74.49 -41.269,118.65 l 18.996,39.27 268.257,-129.8 -19,-39.27 c -21.367,-44.16 -74.484,-62.64 -118.64,-41.27" /><path
         id="path320"
         style="fill:#ff926c;fill-opacity:1;fill-rule:nonzero;stroke:none"
         d="m 651.188,3651.83 c 0,0 21.875,92.78 -128.782,92.78 -102.769,0 -75.347,-83.95 -31.054,-106.77 44.285,-22.82 33.007,-43.59 5.558,-61.89 -27.445,-18.29 12.988,-37.25 12.988,-37.25 0,0 107.727,0.83 141.29,113.13" /><path
         id="path322"
         style="fill:#1c0102;fill-opacity:1;fill-rule:nonzero;stroke:none"
         d="m 516.012,3682.9 c -27.516,0 -59.426,23.7 -61.047,24.92 -2.711,2.04 -3.258,5.89 -1.227,8.61 2.039,2.72 5.899,3.25 8.61,1.22 11.718,-8.8 46.203,-29.58 64.785,-20.1 10.078,5.12 15.027,19.11 14.711,41.57 -0.051,3.39 2.664,6.18 6.062,6.23 3.391,0.28 6.184,-2.66 6.231,-6.06 0.383,-27.55 -6.828,-45.29 -21.449,-52.71 -5.133,-2.6 -10.801,-3.68 -16.676,-3.68" /><path
         id="path324"
         style="fill:#ffb850;fill-opacity:1;fill-rule:nonzero;stroke:none"
         d="m 115.77,4559.89 c -21.5591,0 -42.1098,-12.9 -55.9927,-35.54 -15.1328,-24.67 -21.8554,-62.18 -2.7773,-90.4 14.2969,-21.14 38.0117,-35.31 66.777,-39.89 34.922,-5.56 71.645,3.47 98.305,24.15 -3.531,25 -10.754,49.63 -22.309,73.49 -9.019,18.6 -34.605,62.45 -77.281,67.77 -2.246,0.28 -4.492,0.42 -6.722,0.42 z m -19.602,-510.97 -18.0078,16.74 c 80.3628,86.48 150.3008,207.82 146.3558,324.41 -30.321,-18.51 -68.348,-26.09 -104.606,-20.29 -35.5584,5.66 -65.1327,23.56 -83.2811,50.4 -21.8203,32.29 -20.9414,79.31 2.1875,117.03 20.5117,33.44 52.8477,50.94 86.7226,46.66 38.473,-4.8 73.59,-34.48 96.359,-81.45 10.079,-20.8 17.149,-42.09 21.571,-63.65 32.023,37.69 48.629,93.97 44.183,153.83 -2.043,27.58 -8.027,55.63 -13.797,82.75 -7.695,36.11 -15.656,73.46 -14.996,111.59 1.801,103.34 74.047,202.74 171.782,236.35 38.199,13.14 78.609,16.83 117.691,20.41 41.281,3.77 80.258,7.34 117.023,21.03 105.102,39.15 158.606,143.69 215.247,254.37 56.496,110.37 114.898,224.49 229.708,266.34 97.1,35.38 199.56,4.98 298.63,-24.43 98.5,-29.24 191.53,-56.84 280.5,-26.34 l 7.96,-23.25 c -96.35,-33.05 -197.56,-3.02 -295.45,26.02 -99.61,29.56 -193.7,57.52 -283.21,24.9 C 1012.99,5523.8 959.32,5418.93 902.496,5307.9 846.203,5197.91 787.992,5084.17 673.938,5041.69 c -39.84,-14.84 -82.301,-18.72 -123.368,-22.48 -39.355,-3.6 -76.535,-7 -111.929,-19.17 -88.305,-30.36 -153.575,-120.16 -155.196,-213.53 -0.609,-35.32 6.703,-69.67 14.453,-106.04 5.954,-27.92 12.106,-56.8 14.266,-86.04 5.617,-75.62 -18.215,-144.15 -64.164,-186.46 11.82,-129.29 -63.879,-264.39 -151.832,-359.05" /><path
         id="path326"
         style="fill:#1b0102;fill-opacity:1;fill-rule:nonzero;stroke:none"
         d="m 3906.8,655.781 c -0.41,0 -0.82,0.039 -1.23,0.117 -3.32,0.672 -5.48,3.922 -4.81,7.243 40.66,201.918 106.74,398.349 196.41,583.839 1.48,3.06 5.15,4.32 8.21,2.86 3.05,-1.48 4.34,-5.16 2.85,-8.21 -89.21,-184.57 -154.97,-380.021 -195.42,-580.919 -0.59,-2.922 -3.16,-4.93 -6.01,-4.93" /><path
         id="path328"
         style="fill:#1b0102;fill-opacity:1;fill-rule:nonzero;stroke:none"
         d="m 3889.52,568.422 c -2.99,0 -5.61,2.199 -6.07,5.258 -55.68,381.789 -60.4,769.6 -14.04,1152.65 0.4,3.37 3.57,5.69 6.83,5.36 3.37,-0.4 5.76,-3.48 5.36,-6.84 -46.22,-381.97 -41.5,-768.69 14.02,-1149.389 0.49,-3.371 -1.84,-6.481 -5.2,-6.981 -0.3,-0.031 -0.59,-0.058 -0.9,-0.058" /><path
         id="path330"
         style="fill:#1b0102;fill-opacity:1;fill-rule:nonzero;stroke:none"
         d="m 3830.25,590.648 c -2.12,0 -4.17,1.094 -5.33,3.043 -24.93,42.84 -40.99,90.911 -53.41,132.289 -67.38,224.309 -89.45,460.66 -110.78,689.25 -0.32,3.37 2.16,6.37 5.54,6.69 3.56,0.26 6.39,-2.17 6.7,-5.55 21.28,-227.98 43.29,-463.71 110.29,-686.87 12.23,-40.668 28,-87.891 52.3,-129.621 1.71,-2.938 0.71,-6.699 -2.22,-8.399 -0.97,-0.57 -2.04,-0.832 -3.09,-0.832" /><path
         id="path332"
         style="fill:#f45a56;fill-opacity:1;fill-rule:nonzero;stroke:none"
         d="M 3924.56,738.211 H 3612.83 L 3751.48,136.27 h 285.14 l 138.65,601.941 h -250.71" /><path
         id="path334"
         style="fill:#ffffff;fill-opacity:1;fill-rule:nonzero;stroke:none"
         d="m 4079.73,349.02 c -1.24,0 -2.47,0.378 -3.56,1.132 -151.04,107.02 -294.18,227.489 -425.43,358.078 -2.41,2.391 -2.41,6.29 -0.01,8.7 2.4,2.422 6.28,2.39 8.69,0.011 130.77,-130.101 273.37,-250.121 423.86,-356.75 2.78,-1.98 3.42,-5.8 1.47,-8.582 -1.2,-1.687 -3.1,-2.589 -5.02,-2.589" /><path
         id="path336"
         style="fill:#ffffff;fill-opacity:1;fill-rule:nonzero;stroke:none"
         d="m 4076.51,436.281 c -1.23,0 -2.47,0.36 -3.54,1.129 -51.23,36.168 -100.78,75.789 -147.3,117.77 -2.52,2.269 -2.73,6.16 -0.44,8.679 2.26,2.512 6.15,2.7 8.68,0.45 46.15,-41.657 95.32,-80.977 146.14,-116.86 2.77,-1.957 3.44,-5.789 1.48,-8.558 -1.19,-1.7 -3.1,-2.61 -5.02,-2.61" /><path
         id="path338"
         style="fill:#ffffff;fill-opacity:1;fill-rule:nonzero;stroke:none"
         d="m 4024.36,269.43 c -1.28,0 -2.58,0.398 -3.68,1.23 -98.68,73.781 -193.38,154.871 -281.48,240.988 -2.43,2.372 -2.48,6.274 -0.1,8.692 2.38,2.43 6.27,2.449 8.7,0.101 87.7,-85.742 182,-166.472 280.25,-239.941 2.71,-2.031 3.26,-5.879 1.23,-8.602 -1.21,-1.617 -3.06,-2.468 -4.92,-2.468" /><path
         id="path340"
         style="fill:#ffffff;fill-opacity:1;fill-rule:nonzero;stroke:none"
         d="m 3711.57,547.461 c -1.57,0 -3.14,0.598 -4.34,1.801 l -17.38,17.379 c -2.41,2.398 -2.41,6.289 0,8.687 2.4,2.41 6.29,2.41 8.69,0 l 17.38,-17.379 c 2.4,-2.398 2.4,-6.289 0,-8.687 -1.2,-1.203 -2.77,-1.801 -4.35,-1.801" /><path
         id="path342"
         style="fill:#ffffff;fill-opacity:1;fill-rule:nonzero;stroke:none"
         d="m 3899.25,585.691 c -1.4,0 -2.79,0.469 -3.94,1.438 l -20.85,17.359 c -2.61,2.172 -2.95,6.051 -0.79,8.672 2.19,2.578 6.06,2.942 8.67,0.789 l 20.85,-17.39 c 2.6,-2.161 2.95,-6.039 0.78,-8.661 -1.21,-1.437 -2.96,-2.207 -4.72,-2.207" /><path
         id="path344"
         style="fill:#ffb850;fill-opacity:1;fill-rule:nonzero;stroke:none"
         d="m 3955.74,1244.83 c -40.16,87.9 -54.91,189.45 -28.97,282.55 8.92,31.98 23.15,63.62 47.86,85.79 24.7,22.16 61.54,32.97 92.19,20.22 22.77,-9.47 39.22,-30.41 48.69,-53.18 9.46,-22.78 12.81,-47.55 16.08,-72 3.56,41.35 25.73,84.89 58.99,109.7 33.26,24.83 77.3,34.63 117.96,26.26 23.63,-4.87 46.84,-16.33 60.87,-35.96 8.5,-11.88 13.2,-26.09 16.19,-40.39 11.46,-54.8 -1.66,-114.27 -35.13,-159.17 37.25,23.94 88.2,39.74 124.24,14.02 35.55,-25.37 37.58,-80.49 15.93,-118.43 -21.65,-37.93 -60.32,-62.52 -97.9,-84.78 -65.57,-38.83 -134.71,-76.04 -210.39,-84.99 -75.69,-8.94 -194.94,41.03 -226.61,110.36" /><path
         id="path346"
         style="fill:#1b0102;fill-opacity:1;fill-rule:nonzero;stroke:none"
         d="m 4068.88,1187.14 c -3.23,0 -5.95,2.52 -6.14,5.78 -8.85,149.31 31.04,300.68 112.34,426.24 1.87,2.84 5.68,3.63 8.5,1.82 2.86,-1.85 3.66,-5.66 1.82,-8.51 -79.87,-123.37 -119.08,-272.11 -110.39,-418.83 0.21,-3.38 -2.38,-6.29 -5.78,-6.49 -0.12,-0.01 -0.23,-0.01 -0.35,-0.01" /><path
         id="path348"
         style="fill:#1b0102;fill-opacity:1;fill-rule:nonzero;stroke:none"
         d="m 4330.37,1369.08 c -1.25,0 -2.51,0.38 -3.58,1.17 -2.76,1.97 -3.39,5.82 -1.41,8.57 32.37,44.96 52.22,100.17 55.91,155.45 0.23,3.39 3.25,5.82 6.54,5.72 3.38,-0.22 5.95,-3.15 5.73,-6.54 -3.84,-57.55 -24.51,-115.01 -58.19,-161.81 -1.2,-1.67 -3.08,-2.56 -5,-2.56" /><path
         id="path350"
         style="fill:#1b0102;fill-opacity:1;fill-rule:nonzero;stroke:none"
         d="m 4147.66,1204.05 c -2.15,0 -4.24,1.13 -5.35,3.14 -1.67,2.96 -0.62,6.71 2.34,8.37 52.67,29.56 100.13,67.1 141.08,111.56 2.31,2.49 6.2,2.65 8.69,0.35 2.5,-2.29 2.65,-6.18 0.36,-8.68 -41.84,-45.42 -90.32,-83.76 -144.1,-113.94 -0.96,-0.54 -2,-0.8 -3.02,-0.8" /><path
         id="path352"
         style="fill:#1b0102;fill-opacity:1;fill-rule:nonzero;stroke:none"
         d="m 3991.04,1236.72 c -2.26,0 -4.44,1.25 -5.5,3.42 -21.41,42.97 -33.4,91.06 -34.71,139.07 -0.09,3.4 2.58,6.22 5.98,6.32 0.06,0 0.12,0 0.17,0 3.33,0 6.05,-2.64 6.15,-5.98 1.26,-46.24 12.8,-92.56 33.41,-133.94 1.51,-3.04 0.27,-6.73 -2.77,-8.25 -0.88,-0.43 -1.81,-0.64 -2.73,-0.64" /><path
         id="path354"
         style="fill:#1b0102;fill-opacity:1;fill-rule:nonzero;stroke:none"
         d="m 4311.06,1214.14 c -1.87,0 -3.73,0.86 -4.93,2.49 -2.04,2.73 -1.46,6.57 1.27,8.6 l 44.69,33.13 c 2.76,2.01 6.59,1.45 8.6,-1.28 2.03,-2.72 1.45,-6.57 -1.27,-8.6 l -44.7,-33.13 c -1.1,-0.82 -2.38,-1.21 -3.66,-1.21" /><path
         id="path356"
         style="fill:#f45a56;fill-opacity:1;fill-rule:nonzero;stroke:none"
         d="m 3761,1754.2 c -30.87,68.65 -41.88,147.8 -21.24,220.2 7.09,24.86 18.33,49.43 37.67,66.58 19.35,17.15 48.09,25.39 71.9,15.32 17.68,-7.49 30.4,-23.87 37.66,-41.65 7.27,-17.78 9.77,-37.09 12.2,-56.15 2.96,32.18 20.43,65.98 46.45,85.16 26.02,19.17 60.37,26.6 91.99,19.9 18.38,-3.9 36.41,-12.93 47.24,-28.3 6.56,-9.29 10.15,-20.38 12.42,-31.53 8.67,-42.73 -1.83,-88.99 -28.11,-123.8 29.12,18.48 68.88,30.54 96.82,10.34 27.58,-19.93 28.9,-62.87 11.85,-92.31 -17.04,-29.44 -47.26,-48.4 -76.64,-65.57 -51.25,-29.94 -105.26,-58.58 -164.24,-65.19 -59,-6.62 -151.63,32.86 -175.97,87" /><path
         id="path358"
         style="fill:#1b0102;fill-opacity:1;fill-rule:nonzero;stroke:none"
         d="m 3848.86,1707.38 c -3.25,0 -5.97,2.54 -6.13,5.82 -6.22,116.61 25.65,234.59 89.71,332.25 1.86,2.85 5.67,3.63 8.51,1.77 2.83,-1.87 3.62,-5.68 1.77,-8.52 -62.63,-95.48 -93.78,-210.84 -87.73,-324.84 0.19,-3.39 -2.41,-6.28 -5.81,-6.47 -0.11,-0.01 -0.21,-0.01 -0.32,-0.01" /><path
         id="path360"
         style="fill:#1b0102;fill-opacity:1;fill-rule:nonzero;stroke:none"
         d="m 4053.38,1847.85 c -1.27,0 -2.54,0.38 -3.63,1.17 -2.74,2.02 -3.33,5.85 -1.34,8.6 25.26,34.68 40.9,77.33 44,120.1 0.26,3.39 3.28,5.93 6.59,5.69 3.38,-0.25 5.92,-3.19 5.69,-6.57 -3.28,-45.05 -19.74,-89.95 -46.35,-126.46 -1.19,-1.65 -3.06,-2.53 -4.96,-2.53" /><path
         id="path362"
         style="fill:#1b0102;fill-opacity:1;fill-rule:nonzero;stroke:none"
         d="m 3910.31,1720.18 c -2.16,0 -4.25,1.14 -5.39,3.17 -1.64,2.97 -0.56,6.71 2.41,8.36 41.04,22.71 78.06,51.63 110.05,85.96 2.32,2.48 6.2,2.61 8.69,0.3 2.48,-2.3 2.61,-6.2 0.31,-8.68 -32.88,-35.28 -70.93,-64.99 -113.1,-88.34 -0.94,-0.52 -1.97,-0.77 -2.97,-0.77" /><path
         id="path364"
         style="fill:#1b0102;fill-opacity:1;fill-rule:nonzero;stroke:none"
         d="m 3788.48,1746.37 c -2.27,0 -4.45,1.26 -5.53,3.44 -16.55,33.77 -25.72,71.48 -26.5,109.05 -0.07,3.4 2.62,6.2 6.01,6.28 0.05,0 0.1,0 0.14,0 3.33,0 6.07,-2.67 6.14,-6.03 0.74,-35.79 9.49,-71.72 25.26,-103.89 1.49,-3.05 0.23,-6.73 -2.82,-8.23 -0.87,-0.43 -1.79,-0.62 -2.7,-0.62" /><path
         id="path366"
         style="fill:#1b0102;fill-opacity:1;fill-rule:nonzero;stroke:none"
         d="m 4037.6,1727.28 c -1.88,0 -3.76,0.87 -4.95,2.52 -2.01,2.73 -1.43,6.58 1.33,8.58 l 34.97,25.6 c 2.71,2.01 6.58,1.41 8.58,-1.33 2,-2.75 1.42,-6.58 -1.34,-8.59 l -34.97,-25.59 c -1.08,-0.81 -2.36,-1.19 -3.62,-1.19" /><path
         id="path368"
         style="fill:#9d83c6;fill-opacity:1;fill-rule:nonzero;stroke:none"
         d="m 3574.24,1359.32 c -46.65,33.42 -84.23,81.38 -98.37,137 -4.85,19.1 -6.85,39.61 -0.67,58.32 6.18,18.72 21.96,35.17 41.51,37.65 14.53,1.84 29.19,-4.09 40.79,-13.02 11.6,-8.94 20.65,-20.7 29.55,-32.34 -10.39,22.35 -11.81,51.32 -2.01,73.93 9.81,22.62 29.6,40.67 53.01,48.36 13.61,4.47 28.95,5.43 41.97,-0.54 7.89,-3.61 14.5,-9.55 20.28,-16.03 22.09,-24.85 32.89,-59.36 28.9,-92.37 12.12,23.33 33.7,46.52 59.86,43.91 25.82,-2.57 43.14,-30.36 43.18,-56.3 0.05,-25.94 -12.61,-50.02 -25.39,-72.59 -22.31,-39.37 -46.94,-78.94 -83.28,-105.9 -36.35,-26.97 -112.54,-36.44 -149.33,-10.08" /><path
         id="path370"
         style="fill:#1b0102;fill-opacity:1;fill-rule:nonzero;stroke:none"
         d="m 3647.74,1360.03 c -2,0 -3.97,0.98 -5.14,2.78 -48.95,74.75 -73.23,165.04 -68.41,254.25 0.2,3.39 2.79,5.94 6.48,5.81 3.38,-0.18 5.98,-3.08 5.79,-6.47 -4.68,-86.61 18.89,-174.28 66.41,-246.86 1.86,-2.83 1.07,-6.65 -1.77,-8.5 -1.04,-0.69 -2.2,-1.01 -3.36,-1.01" /><path
         id="path372"
         style="fill:#1b0102;fill-opacity:1;fill-rule:nonzero;stroke:none"
         d="m 3728.73,1530.99 c -0.21,0 -0.43,0.01 -0.65,0.03 -3.37,0.35 -5.82,3.37 -5.47,6.75 3.34,32.25 -2.66,66.07 -16.87,95.23 -1.49,3.05 -0.23,6.73 2.84,8.21 3,1.49 6.71,0.24 8.21,-2.82 15.2,-31.19 21.62,-67.38 18.04,-101.88 -0.33,-3.17 -2.99,-5.52 -6.1,-5.52" /><path
         id="path374"
         style="fill:#1b0102;fill-opacity:1;fill-rule:nonzero;stroke:none"
         d="m 3683.34,1392.01 c -1.08,0 -2.16,0.29 -3.16,0.87 -2.9,1.74 -3.86,5.52 -2.11,8.43 18.26,30.57 31.52,63.67 39.42,98.41 0.76,3.3 4,5.39 7.35,4.63 3.32,-0.75 5.39,-4.05 4.64,-7.37 -8.18,-35.98 -21.93,-70.29 -40.87,-101.97 -1.14,-1.93 -3.18,-3 -5.27,-3" /><path
         id="path376"
         style="fill:#1b0102;fill-opacity:1;fill-rule:nonzero;stroke:none"
         d="m 3593,1362.59 c -1.17,0 -2.36,0.33 -3.41,1.03 -24,16.02 -44.66,37.51 -59.69,62.18 -1.77,2.89 -0.85,6.68 2.04,8.45 2.9,1.77 6.69,0.86 8.44,-2.05 14.13,-23.15 33.5,-43.32 56.03,-58.35 2.82,-1.89 3.59,-5.7 1.71,-8.53 -1.19,-1.77 -3.14,-2.73 -5.12,-2.73" /><path
         id="path378"
         style="fill:#1b0102;fill-opacity:1;fill-rule:nonzero;stroke:none"
         d="m 3764.53,1445.46 c -0.83,0 -1.66,0.17 -2.46,0.52 -3.11,1.36 -4.53,4.98 -3.17,8.09 l 13.24,30.27 c 1.37,3.11 5.05,4.52 8.09,3.16 3.11,-1.36 4.53,-4.98 3.17,-8.09 l -13.24,-30.26 c -1.01,-2.31 -3.26,-3.69 -5.63,-3.69" /><path
         id="path380"
         style="fill:#584848;fill-opacity:1;fill-rule:nonzero;stroke:none"
         d="m 6371.8,148.199 h -435.06 c -90.28,0 -166.02,61.531 -175.61,142.66 L 5636.66,1343.29 H 6671.88 L 6547.41,290.859 c -9.6,-81.129 -85.34,-142.66 -175.61,-142.66" /><path
         id="path382"
         style="fill:#f45a56;fill-opacity:1;fill-rule:nonzero;stroke:none"
         d="m 6501.64,767.602 c 0,-189.372 -153.51,-342.883 -342.88,-342.883 -189.37,0 -342.89,153.511 -342.89,342.883 0,189.367 153.52,342.888 342.89,342.888 189.37,0 342.88,-153.521 342.88,-342.888" /><path
         id="path384"
         style="fill:#ffb850;fill-opacity:1;fill-rule:nonzero;stroke:none"
         d="m 6167.81,643.77 c -4.47,6.992 -8.94,13.98 -13.3,20.992 -24.22,38.988 -51.4,90.699 -46.39,144.937 1.92,20.93 8.23,40.192 15.67,61.41 12.78,36.52 26.59,73.102 41.06,109.082 -4.96,0.661 -9.99,1.02 -15.07,1.02 -85.37,0 -154.58,-95.629 -154.58,-213.609 0,-117.973 69.21,-213.602 154.58,-213.602 21.14,0 41.3,5.871 59.66,16.5 -11.1,25.52 -26.54,49.68 -41.63,73.27" /><path
         id="path386"
         style="fill:#ffb850;fill-opacity:1;fill-rule:nonzero;stroke:none"
         d="m 6203.13,975.531 c -14.8,-36.66 -28.91,-73.972 -41.96,-111.222 -6.97,-19.911 -12.88,-37.899 -14.6,-56.5 -4.44,-48.137 20.85,-95.93 43.39,-132.188 4.31,-6.941 8.73,-13.84 13.16,-20.769 14.87,-23.243 30.05,-47.024 41.55,-72.5 46.39,36.867 77.65,105.988 77.65,185.25 0,101.148 -50.88,185.808 -119.19,207.929" /><path
         id="path388"
         style="fill:#ffffff;fill-opacity:1;fill-rule:nonzero;stroke:none"
         d="m 5929.87,961.602 5.45,-4.481 c -44.74,-54.601 -71.67,-120.621 -73.88,-181.129 -4.83,-132.812 87.61,-261.472 215.01,-299.293 69.49,-20.609 143.08,-14.027 201.92,18.082 44.99,24.551 85.17,65.778 119.41,122.547 32.07,53.164 47.56,101.121 47.4,146.633 -0.27,67.051 -34.87,136.141 -102.88,205.34 -38.97,39.649 -74.47,65.939 -111.72,82.699 -117.26,52.81 -232.34,-18.11 -295.26,-94.879 z M 6157.13,450.75 c -28.15,0 -56.75,4.102 -84.71,12.398 -133.38,39.602 -230.16,174.313 -225.1,313.364 2.31,63.527 30.41,132.629 77.08,189.566 66.08,80.642 187.43,154.902 311.98,98.812 38.91,-17.52 75.76,-44.74 116.01,-85.691 70.67,-71.918 106.65,-144.328 106.92,-215.179 0.18,-48.188 -15.99,-98.551 -49.43,-153.989 -35.55,-58.929 -77.52,-101.883 -124.74,-127.672 -38.35,-20.918 -82.58,-31.609 -128.01,-31.609" /><path
         id="path390"
         style="fill:#ffb850;fill-opacity:1;fill-rule:nonzero;stroke:none"
         d="M 6727.58,1240.08 H 5580.95 v 87.3 c 0,38.79 31.45,70.23 70.23,70.23 h 1006.18 c 38.78,0 70.22,-31.44 70.22,-70.23 v -87.3" /><path
         id="path392"
         style="fill:#ffb850;fill-opacity:1;fill-rule:nonzero;stroke:none"
         d="m 6569.05,1397.61 h -829.57 v 11.72 c 0,70.87 57.46,128.31 128.33,128.31 h 572.92 c 70.86,0 128.32,-57.44 128.32,-128.31 v -11.72" /><path
         id="path394"
         style="fill:#1b0202;fill-opacity:1;fill-rule:nonzero;stroke:none"
         d="m 6284.47,1390.54 h -544.99 c -3.89,0 -7.06,3.16 -7.06,7.07 0,3.91 3.17,7.07 7.06,7.07 h 544.99 c 3.9,0 7.07,-3.16 7.07,-7.07 0,-3.91 -3.17,-7.07 -7.07,-7.07" /><path
         id="path396"
         style="fill:#1b0202;fill-opacity:1;fill-rule:nonzero;stroke:none"
         d="m 6569.05,1390.54 h -186.88 c -3.91,0 -7.07,3.16 -7.07,7.07 0,3.91 3.16,7.07 7.07,7.07 h 186.88 c 3.9,0 7.07,-3.16 7.07,-7.07 0,-3.91 -3.17,-7.07 -7.07,-7.07" /><path
         id="path398"
         style="fill:#f45a56;fill-opacity:1;fill-rule:nonzero;stroke:none"
         d="m 9325.73,2930.18 -306.55,-249.56 -870.41,1069.16 306.54,249.56 870.42,-1069.16" /><path
         id="path400"
         style="fill:#ffcf9f;fill-opacity:1;fill-rule:nonzero;stroke:none"
         d="m 8148.77,3749.78 -34.19,355.05 340.73,-105.49 z" /><path
         id="path402"
         style="fill:#ffcf9f;fill-opacity:1;fill-rule:nonzero;stroke:none"
         d="m 8148.77,3749.78 c 0,0 71.55,-31.58 73.79,60.08 0,0 152.99,-42.15 158.96,129.4 0,0 99.6,-26.28 73.79,60.08 l -209.82,-91.77 -96.72,-157.79" /><path
         id="path404"
         style="fill:#1b0202;fill-opacity:1;fill-rule:nonzero;stroke:none"
         d="m 8682.45,3227.71 c -3.57,0 -7.12,1.55 -9.54,4.53 l -397.05,487.71 c -4.29,5.26 -3.48,13.01 1.78,17.29 5.24,4.29 13.03,3.48 17.28,-1.77 l 397.06,-487.71 c 4.28,-5.26 3.49,-13 -1.78,-17.29 -2.27,-1.86 -5.02,-2.76 -7.75,-2.76" /><path
         id="path406"
         style="fill:#1b0202;fill-opacity:1;fill-rule:nonzero;stroke:none"
         d="m 8922.86,2932.41 c -3.57,0 -7.12,1.55 -9.54,4.53 l -158.45,194.63 c -4.29,5.27 -3.49,13.01 1.77,17.3 5.27,4.3 13.02,3.48 17.29,-1.77 l 158.46,-194.64 c 4.28,-5.26 3.49,-13.01 -1.78,-17.29 -2.27,-1.86 -5.02,-2.76 -7.75,-2.76" /><path
         id="path408"
         style="fill:#1b0202;fill-opacity:1;fill-rule:nonzero;stroke:none"
         d="m 9249.4,2869.21 c -3.59,0 -7.12,1.55 -9.54,4.54 l -721.94,886.77 c -4.28,5.26 -3.49,13.01 1.77,17.29 5.25,4.3 13.03,3.48 17.29,-1.77 l 721.94,-886.77 c 4.29,-5.27 3.48,-13.01 -1.78,-17.29 -2.27,-1.86 -5.02,-2.77 -7.74,-2.77" /><path
         id="path410"
         style="fill:#1c0102;fill-opacity:1;fill-rule:nonzero;stroke:none"
         d="m 8114.58,4104.83 8.96,-90.9 78.23,63.68 z" /><path
         id="path412"
         style="fill:#ffb850;fill-opacity:1;fill-rule:nonzero;stroke:none"
         d="m 9378.11,2865.85 -306.55,-249.57 -52.38,64.34 306.55,249.56 52.38,-64.33" /><path
         id="path414"
         style="fill:#f45a56;fill-opacity:1;fill-rule:nonzero;stroke:none"
         d="m 9397.66,2655.22 -123.81,-100.8 c -50.46,-41.08 -124.68,-33.47 -165.75,16.99 l -36.54,44.87 306.55,249.57 36.53,-44.88 c 41.09,-50.46 33.48,-124.67 -16.98,-165.75" /><path
         id="path416"
         style="fill:#1c0102;fill-opacity:1;fill-rule:nonzero;stroke:none"
         d="M 9215.82,119.09 H 649.453 c -7.687,0 -13.922,6.23 -13.922,13.93 0,7.679 6.235,13.921 13.922,13.921 H 9215.82 c 7.7,0 13.93,-6.242 13.93,-13.921 0,-7.7 -6.23,-13.93 -13.93,-13.93" /><path
         id="path418"
         style="fill:#d68a25;fill-opacity:1;fill-rule:nonzero;stroke:none"
         d="m 3056.85,5379.09 220.96,296 -276.68,-79.33 z" /><path
         id="path420"
         style="fill:#ffb850;fill-opacity:1;fill-rule:nonzero;stroke:none"
         d="m 3001.13,5595.76 743.48,626.75 -441.98,-750.13 z" /><path
         id="path422"
         style="fill:#1c0102;fill-opacity:1;fill-rule:nonzero;stroke:none"
         d="m 3744.61,6222.51 -743.48,-626.75 55.72,-216.67 -230.25,289.08 918.01,554.34" /><path
         id="path424"
         style="fill:#ffb850;fill-opacity:1;fill-rule:nonzero;stroke:none"
         d="m 3744.61,6222.51 -918.01,-554.34 -221.22,5.46 z" /><path
         id="path426"
         style="fill:#1c0102;fill-opacity:1;fill-rule:nonzero;stroke:none"
         d="m 2852.03,5408.39 c -3,-0.77 -6.34,0.09 -8.6,2.54 -3.27,3.54 -3.06,9.07 0.51,12.35 l 46.75,43.12 c 3.54,3.25 9.08,3.05 12.34,-0.51 3.27,-3.54 3.06,-9.07 -0.51,-12.35 l -46.75,-43.11 c -1.09,-1.01 -2.38,-1.69 -3.74,-2.04 z m -102.78,-94.81 c -3.01,-0.78 -6.35,0.08 -8.6,2.53 -3.27,3.55 -3.06,9.08 0.5,12.36 l 51.4,47.41 c 3.54,3.27 9.09,3.06 12.35,-0.5 3.28,-3.55 3.05,-9.08 -0.5,-12.35 l -51.41,-47.42 c -1.09,-1.01 -2.38,-1.69 -3.74,-2.03 z m -102.78,-94.82 c -3.01,-0.78 -6.33,0.09 -8.61,2.54 -3.27,3.54 -3.05,9.07 0.5,12.35 l 51.38,47.41 c 3.58,3.28 9.07,3.04 12.36,-0.5 3.27,-3.55 3.06,-9.07 -0.49,-12.35 l -51.38,-47.41 c -1.12,-1.02 -2.41,-1.69 -3.76,-2.04 z m -102.79,-94.81 c -3,-0.78 -6.32,0.08 -8.6,2.53 -3.27,3.55 -3.06,9.08 0.49,12.35 l 51.39,47.41 c 3.58,3.28 9.07,3.06 12.36,-0.5 3.27,-3.54 3.06,-9.07 -0.49,-12.35 l -51.39,-47.4 c -1.11,-1.02 -2.4,-1.7 -3.76,-2.04 z m -102.78,-94.81 c -3.01,-0.77 -6.35,0.08 -8.6,2.54 -3.27,3.54 -3.06,9.07 0.51,12.35 l 51.38,47.4 c 3.53,3.27 9.08,3.05 12.35,-0.5 3.27,-3.55 3.05,-9.07 -0.51,-12.35 l -51.39,-47.41 c -1.09,-1.01 -2.38,-1.68 -3.74,-2.03 z m -102.8,-94.82 c -3.01,-0.78 -6.35,0.09 -8.61,2.54 -3.27,3.54 -3.03,9.07 0.51,12.35 l 51.41,47.4 c 3.52,3.27 9.08,3.06 12.34,-0.5 3.27,-3.54 3.04,-9.08 -0.51,-12.35 l -51.4,-47.41 c -1.1,-1.01 -2.38,-1.68 -3.74,-2.03 z m -102.79,-94.82 c -3,-0.77 -6.34,0.09 -8.6,2.54 -3.27,3.55 -3.04,9.08 0.51,12.36 l 51.41,47.4 c 3.52,3.27 9.08,3.05 12.34,-0.5 3.27,-3.55 3.04,-9.08 -0.51,-12.35 l -51.4,-47.41 c -1.1,-1.01 -2.39,-1.69 -3.75,-2.04 z m -102.78,-94.81 c -3.01,-0.78 -6.35,0.08 -8.6,2.53 -3.27,3.55 -3.04,9.08 0.51,12.36 l 51.4,47.4 c 3.53,3.27 9.08,3.07 12.35,-0.49 3.27,-3.55 3.03,-9.09 -0.51,-12.36 l -51.41,-47.41 c -1.09,-1.01 -2.38,-1.68 -3.74,-2.03" /></g></g></svg>